<mxfile host="app.diagrams.net" modified="2021-03-30T09:32:56.364Z" agent="5.0 (Macintosh; Intel Mac OS X 10_15_6) AppleWebKit/537.36 (KHTML, like Gecko) Chrome/89.0.4389.90 Safari/537.36" etag="82Og6KPm3tkd6-za_1NI" version="14.4.6" type="github">
  <diagram id="YCVLtWndf9lajcbIvc0S" name="第 1 页">
    <mxGraphModel dx="1186" dy="764" grid="1" gridSize="10" guides="1" tooltips="1" connect="1" arrows="1" fold="1" page="1" pageScale="1" pageWidth="827" pageHeight="1169" math="0" shadow="0">
      <root>
        <mxCell id="0" />
        <mxCell id="1" parent="0" />
        <mxCell id="RB0Uhzs26PAhKy_j06YG-1" value="1. 数据结构&lt;br&gt;" style="text;html=1;align=center;verticalAlign=middle;resizable=0;points=[];autosize=1;" vertex="1" parent="1">
          <mxGeometry x="40" y="60" width="80" height="20" as="geometry" />
        </mxCell>
        <mxCell id="RB0Uhzs26PAhKy_j06YG-2" value="String：" style="text;html=1;align=center;verticalAlign=middle;resizable=0;points=[];autosize=1;" vertex="1" parent="1">
          <mxGeometry x="60" y="100" width="60" height="20" as="geometry" />
        </mxCell>
        <mxCell id="RB0Uhzs26PAhKy_j06YG-3" value="3. 主从复制" style="text;html=1;align=center;verticalAlign=middle;resizable=0;points=[];autosize=1;" vertex="1" parent="1">
          <mxGeometry x="40" y="330" width="80" height="20" as="geometry" />
        </mxCell>
        <mxCell id="RB0Uhzs26PAhKy_j06YG-4" value="与mysql已有，redis的复制也是异步复制的&lt;br&gt;当业务系统往master写入数据的时候，他就会通过异步复制的方式把数据同步给slave&lt;br&gt;所以和mysql类似，当业务系统认为他已经把数据写入到redis的时候&lt;br&gt;此时master挂了，但是数据还没同步到slave，他的数据就丢失了。" style="text;html=1;align=left;verticalAlign=middle;resizable=0;points=[];autosize=1;" vertex="1" parent="1">
          <mxGeometry x="60" y="360" width="460" height="60" as="geometry" />
        </mxCell>
        <mxCell id="RB0Uhzs26PAhKy_j06YG-5" value="" style="shape=image;verticalLabelPosition=bottom;labelBackgroundColor=#ffffff;verticalAlign=top;aspect=fixed;imageAspect=0;image=data:image/png,iVBORw0KGgoAAAANSUhEUgAAAt0AAAE7CAYAAAABwj3wAAAABGdBTUEAALGPC/xhBQAAACBjSFJNAAB6JgAAgIQAAPoAAACA6AAAdTAAAOpgAAA6mAAAF3CculE8AAAABmJLR0QA/wD/AP+gvaeTAAA3jElEQVR42u3de3gU5fn/8c+GQAIk4KkW47dWqf4CYhGzYDAaCQdFhFStooKIVaJi1AJFDioFUYoiUrCtETB4jEhFWzXgEQIRRVEXW9sItAi21QVpC4VdYgxk5/fHHrKbbM6ZzE72/bouLnZn55557tmZ7L3PPjPjMAzDkM14PB6lpqbaKtbtdistLc1WbSZf8iVf8rVLm8mXfMmXfGNdgtUNAAAAANo7im4AAADAZBTdAAAAgMkougEAAACTUXQDAAAAJqPoBgAAAExG0Q0AAACYjKIbAAAAMBlFNwAAAGAyim4AAADAZBTdAAAAgMkougEAAACTOQzDMKxuRGN5PB6rm9CitqemplrdDPIlX0vzHTVqlLxer9XNR5xKSUnRmjVrak3n+G3fyLd9a2y+sbBNEq1uQFMEN1hLdihiiSXWuliv1yvX40ubtU6gpZy3TYy639rtOCKWWGJbJ7atMbwEAAAAMBlFNwAAAGAyim4AAADAZBTdAAAAgMkougEAAACTUXQDAAAAJqPoBgAAAExG0Q0AAACYjKIbAAAAMBlFNwAAAGAyim7EnJbcztUut4IFADReS/62p6WlWd18QKLoBgAAAMxH0Q0A7dzuVefq5g++lSRVbJ4belyLp0RT8/LkvG1ixL8Hv+xUK65i81w9+GUnq1MDANtwGIZhWN2IxnK73VLgZyaPx9OsZVgV2xLtOd9oP/vtXOjQ08MNzesr+bRVy7uV6pxDU5QZJT583pCyOer9aJY2LB+uHjXmD+5DVuXb2uuN9fe3ptzcXLkeX9qm64x5CTtUMO5BHbx/pe4+tbLFy3r86reU9sQvdFnq0dC03y04qOunZ6q7YUiOAyr59U3acsXaOte3e9W5WjXwT7r71MqIxxWb52px2q80xX2v7nRM1xPndbZ66zWJ87aJKi4ubtVlxtPxa2aba30W7F+tydNTNbPwEvWQ5C0ep4m+AhVd1q12cI15JcnQPq3PP1sbJ+6J/HwIqO+zoC3yNTO2JdpzvrEwzCjR6gY0RXCDeTyeZm88q2Ldbrft2tyW+db1B7W8+Nd677kCTWzKyvvMVfEZDp3+0HZ5Z6ZHvFRfm3h/2ybfeFexea76fzRK70/p7y+CTbZ75fV6aleGnpr4ZNjU70sLbtJLYVP+nfNL/e0HhTr/uT2SMqTS4OsZSli3RO6Mj7T5L8mSgtOnKHPpcK0oulJnVfms3qyNFm2/5fiNjTbX1cni01YVXefUnYe6NWo9kuTQiRo27zd6K/PnWvnhbzT2+MjXG5sD72/sx9rp88hWRTfii09b9ey0T7Wt62A576+ennRgvBbvmlTrj/LSXtdrRdfkwJQMpWusnKv9z3aMXlmrAAdigi9d+c8+LamFvdzReEr0u3V9ddWsJ6t7tT0lmvJEqu6bem6Uon+OXOcfUMkjT8pzywxdlno00NNdHV+xeW5kL7eNCm7YU3nxr/XEGdskZ1HE9N6zN9TqqPEWj9Og+7ZVT+gmlVzs1CJJiRXZmvTukloFONBWKLoRs3YtdGrzgoNyRfk50Vs8Ts77tvl75FY59atx1+lxd54Kog1D2b9a+YxoQDNUbJ4b6PmVMsYvri40A0NCgl/yQq8Fhm58+NPnNfAP12na376vhCN9NWvxz0MF7FWlGUrSExoy8Ql/3Pn/jBxesqtQZ712jrZc/pkuXLBFCvRC//Oak6sbtqtQzoWf+JsStvwIjgMqWf6p/u+SPiqq0astSUMmrgg9TiwP9Fj/b52mTlmpjR0Tpel58n/XzdCV5/1PJYv9+fhNkfNZ6bv0m9usxx7xKeHAS7r/1v4qcBfV+tvu01YVhHW2fNDnTV01ISVqMS5JXyyYoC1WJ4S4RtGNem3evFl/+ctfJEmGYUT8C58WfBz83+PxqGvXrqHXHQ5HrXjDMDRjxoyo6z3m7UfUr2q7vJd1k7d4nC6eNCCidzslt0iu3Oox3a6+kqYExvHdOlvfzF+qsXvnKKV4rLwzR6vgHn/ctGnT6mz70aNH1aFDh1o5Rsu95mvfffedOnbsWG9MXdN9Pl9o+0RrV33LqKqqioit732quWyfz1fve1jfeoOxdbW35jLCl20buwo1aFlfPVM0V2dV+fTdpk36a4dBOsvYpoJxD+rT2x6X67zOgQL8Nj140krdfZo/9I8PPK0+i4vlChTauSsylTOlv0679iO9f0rDw0uSdjyh3lt+qX8+fqP/5MYpc/Rg5rOhonzA/ErNXlzoL7R3FSrzjtX6UdGVOit8cV+8rBey8vVb42FVzGhET3eVT0odokVPnhwxBnz3qnO1yjhGQ6b8Ua5oPd02e1+dTqckyeFwRPwLasz04PPGTK9vHklKSEho8vodDoeqqqrUoUOHZrX36NGj6tixY9Q2RnscPs3n8ykxMbHOdhmGoYSEhKhtqKqqUmJiYtT2Lly4sNZ7VdVxm1649+/q95cCDQgU2JsXfBAqqBOUofztZcqPMqZbZf6//56Zx6ok+JkwY4V+FHh5wYIFDb6XknTkyBElJSU1+H4EP+fC/1VWVurHP/6xcnJyrN7tESMoulGvadOmqaKiwrTl11V0/+/iu+QNnPySkluk93K3ammvPhr6sz/UOUwkOMTE/WKZ5h0v6fi52rtrnLJ6VhfsJSUlVm9S2Iiv4x598b8EnZXqU1J2ts6q8qli8yoVZNyp97O6+AtOX7pGXPq55u85KAWK7n4Tbgz1PJ828iGNuPkf+lfCAHWvalyBmlg+XK+P/UGoEL5j2MzA8itU8upa9Zuwsrpn+/Rs/ey7t/zt7B62kJ55eqKnVLFZeqmxPd1VPmnnJj18ygjdESimT7v2I91txtAXi9X8QonY0+FIb11TOCVQSPsL7PHF45TZ54R6h4l4i8dpQPH12rk8XQ5Jg5fdoqW9+mhcWMH+4osvtkkOycnJev/9963elIgRFN2oV7DgvvXWWyOmB3tYVEfPjsfjUffu3Rvdi5SSW6TgaL3TpxmaV6MdoR6NKG1840annh94vSYl/E7/eXFnxJnqKblF2txzjlIe2iHvzHQ9/PDDdfboVFRUqHPnzlF7iBrqAfrvf/+r733ve43Kt+ayysvL1bVr10b1pNXsVSkvL1dKSkqjerlqTvN6vUpNTW1Sj1/w/7179yotLa3BnrzwHjGF9TLaQs88bbpprs4PDLO4Kqy3OGmHf3hItQz9O2e/lNXFH3pS9xaN0T58zin6ga/ugnDrs/7hHSHHSlf9N0GXdY8+/1WN7emWtPuj5fpe6Sdybqx+KXPoUHV+8y3/sBMpNLykzqEtMczlctX6Bebrr79WWlpag7/SRPv159ChQ0pJSWnwF61o0z0ej1JSUhq1zprzHD58WF26dKmzXfWtf9++fTrhhBOa9cvc4cOHI37FDP8X7RfN8OWUl5crOTk56vIV+Ds/8VCG/4XjRmtJYe33LyW3SFtya0/v8NEMjXTeqzFjxmjF366PuHpVgjJ02/YNSr91ulZesFRjj6/u8Gko74qKCiUlJdW7b9T1ni1btszUTivYD0U3GuWWW25p0vxNPZu49omQ0QVPiKw+WSZDI55yaV5fyVv8iQbd6NQbUeImPzVXkjR06NA6l+3xeJp917OWni3e3PW2JDY5ObnZsZ07d1bnzva6XFxzJGfNkSvLP9RkwLwlOnPxzzVc9Y1lPtAm7YoYXx5So8j3lFSPz1b9Pd0K5PRBnkeL/z1OQw78n25YfVWgZ3+u7nSMUkHhaCna8BLZp+AOqvkFMzExsdYXxMYyDKPZx1GXLl0sOfaPOeaYmP17VetEyCiCJ0Ree3z150b5wIe1Yflwnait6tLreo101v4sKXfO14ZA7/jVV19ter7Lli1rVhzaL4puxIyEwImQA7RVBTd9o6ueHKEe+1crf2lfFdyTHhij5583Yky3Iqeprut3A01Q8f4zeqvvBH8v7unZusn7liQp+cfZGv7k4yrY/Wyo93j3yof0We4sXdb4K5o1j3GssjL76e6lb+qvFwSGg4Rfhzt83tQhWlQ4pPq5p0TTbv6fTrr690qoulKFX/+o9heHXYX6/mWX6bj1H1u9+RHHgidCeovH6aEfFmle38BJkHkrNOb4ff4x2rXGdFf3lod+FY021huwEEU3AESRnD1QX48bJ2fwCiWTFuu21KOShmjRYmnqlPFyBoZbXDXjSd2d2rjhJMkXXKv8pQ9qyMTkwNVLmtiurDkq1Vydf4v/S0BwPHb3Kp/kiBIQ6PF+66zb9P7vh2r/Cw9p1cBx+uslb2rqhAn+6cHiu2ee7k3YoYJua3TDLetCi8gYb/W7AQD2R9ENANEErp8d7TyCWr3IwaEdxrEaMuWPGhI+1CN1iBauCruedc3l1rxOd888/XVy5FVBTrv2I4WPIA8NewkKW/Ztq9L9Qz4ClxX8Lv1mvb9ihRYZhmQY2l8jh0WeEk2dMEHvKsM/Pru75Dg0Ss88f3X18BKr3wsAaAcoumG50Bi+MxRx84OnnLNCj50v+/9P1xplPpetGYUn6ld3vKzEikmadJN/OMk1qzLCluq/fndwfHdiRba2lC2xOlWg7fTMk+vxPP/jGgX83TW+FFR/gTjqL9xfSQ8V8slZc2oV/E80qgFA0xT06hM4ryf8hmhh5+m86L/JjSTpYqeuu+ZxvfPlZZqxJU07Rq/Ukv2rNTVnXtgJv36bnPeGHnOjNFiJohuWCx+L3RQ/dd1T/WSaIdc0qzMBADRXXVeoqt8euUKP07Xos9FWpwHUKcHqBgAAAADtHUU3AAAAYDJbDS/xeDxRH7dkOcSat4zWWG9bs+N7ZMdYwCp17bd2PI7iLbYl62zutbZbo83NjbfjexTLsS3ZB1qLrYru4Aaz6mYi8Rgb1NRl2DVfYs2PBawUbb+143FEbOzHBjUn3o752jG2rTG8BAAAADAZRTcAAABgMopuAAAAwGQU3QAAAIDJKLoBAAAAk1F0AwAAACaj6AYAAABMZqvrdAOwt5SUFDlvm2h1MxCn7HItXwDtE0U3gDZTWlpqyxsouN1upaWlWdpmp9MpSXK5XHGRb1vGAkBbYHgJAAAAYDKKbgAAAMBkFN0AAACAySi6AQAAAJPZ6kRKj8cT9XFLlkOsecuwY77EEhvrsU1ZVqy0mVhi4zW2JfF2zDeWY2PhRGtbFd3BDWbHs+PtGhvU1GXYNV9iiY312MYuK5baTCyx8Rgb1Jx4O+Zrx9i2xvASAAAAwGQU3QAAAIDJKLoBAAAAk1F0AwAAACaj6AYAAABMRtENAAAAmIyiGwAAADAZRTcAAABgMopuAAAAwGQU3QAAAIDJKLoBAAAAk1F0AwAAACZLtLoBAIDoUlNTQ49dLlezYwEA1nMYhmFY3YjG8ng8VjehRW2344dgTk6OJGnjxo1xkW9zkW/7Zka+bb39mvL3k/e3fSPfttHcz0+75muVxuYbC9vEVj3dwQ3Wkh2K2KbFBjV1GXbNl1hiYym2NTWlDXbcVsQSG2uxQc2Jt2O+doxta4zpBoAY4NNWLe22WFuCE8rmKOWhHY2bN2DnQofGvXrI6lQAAFFQdAOARQzt0/pbJ2rlf6NM/803Wn5zepOW13OaS1kzztOsz6zODABQk62GlwBAPHCUPabpn3wsXezUorDpO0avlHdmjUK8bI6c49dUP++aLN3o1BuBpyOecmleX6szAgBQdANADPHpT3p8xH5N/dSlscdHvmZon9bln6QZW9KkMyQ5izRmzJjoxbgkb/E4PWR1QgAAiaIbAGLLpiWjdGjNV5p4/D6tyz9bl5+yMVRQO3SihhXs0cfaquXdSnXOoSnKlHSXJO1frcnTUzWz8BJ5Fzr09HBD83KLNM/qhAAAEmO6ASC2DJr8leb1rS6wvbkr5XQ66x+nXTZHWf3dGlN4iXpI+tG0b5Sz9KQ6T8QEALQ9eroBwCIOnaihy5YGnmVo4qGM2jP1mSuXa26tyb60QuU7i3TO2LE6btGxWuyepMyw5Q4r2KM/LXRo1mcGY7oBIAZQdAOAlWqeCFmHEU+59EDffVqff7ZmbElTUuUtKtg+Sedqn9Z/cbbync/Vikk6sESLp1mdIABAFN0AYL3QiZBlczRu51QVXdbNfxLkD4s0r6//+ttPRxnTrbBprsD1u8PHegMAYgdjugEAAACTUXQDAAAAJmN4CQBYJHjN7XStkXN1cOoaOe8PPg7e5CZDWuXUy875eib9Et22MkPl187Xen2qgl7jtKJrcvVCA9fvDip3zte25cOtThUA4h5FNwBYJDgWu2kMuaZWP8vfXqZ8qxMBADTIYRiGYXUjGsvtdkuSUlNT5fF4mrUMq2Jbwsp8c3JyJEnFxcVxkW+8vb/ka12+aWlpbdqO4N9Pq/KN5Vjyjf022zHf3NxcqZmfn3bMN9bf37b+mxuNrYruII/Ho9TUVFvFut3uZr/hVuYbLLpdrqb1x9k133h7f8k3tvO1Cu9v7LeZfGM/X6fTKTXj89Ou+drx/W1rnEgJADEqvOfH6XSGPsSbGgsAsB5FNwAAAGAyim4AAADAZFy9BBFKS0u1YcMGSdKRI0cUHPJ/3333hebp06ePRo8ebXVTgXbt7bffVmlpqTp27ChJUY/FrKwsXXzxxVY3FYCkDz/8UG+++WboebRjNiMjQz/5yU+sbiosQtGNCN27d48409rhcEg1zr4+//zzrW4m0O5179494gM82rE4YsQIq5sJIKBbt24Nfn4OGTLE6mbCQgwvQYQf//jHOu6446TAt/Twf5KUkpISuqIJAPM4nU51795dquNYPOaYY5p0YiUAc6Wnp+uEE06Q6jhmu3XrpqysLKubCQtRdCNChw4dNHx49d3rHA5H6Nu6JPXr1y/0czcA8yQmJuqCCy4IPa95LObk5CgxkR8rgVjRoUMHXX755aHnNY/ZgQMHcszGOYpu1HLhhRfW+doll1xidfOAuFHfUK6hQ4da3TwANdR3zF500UVWNw8Wo+hGLf369VPXrl3lcDhCP405HA4lJSUxtARoQ06nU507d651LHbu3JmhJUAM6t27d9TPz+TkZIaWgKIbtXXq1CliiElQv3791LlzZ6ubB8SNpKQkDR48uNb0wYMHKykpyermAaihY8eOuuKKK2pNP++885ScnGx182Axim5EFe0Ma34aA9petGORKyAAsSvaL8IMB4MoulEXp9MZ+oksOLSE8dxA28vKygoNMQkOLeFnaiB2nXXWWRGfn8nJyVF/sUL8oehGVJ06dYo4IaRPnz4MLQEskJSUFFFkZ2VlMbQEiGEdO3aMuIa+0+lkaAkku90cx+PxRH3ckuUQW7fs7Gy9/fbbkqTMzMwmL8du+RJLbKzGZmZmav369VITj0W75ksssXaPzczM1EsvvSRJOvfcc5u1DDvla4fY1NTUZi+/tdiq6A5uMI/H0+yNR2zj9e/fX0lJSaqqqtI111zTpOXYMV9iiY3V2BEjRuiRRx6RAneh7NKlS8y3mVhi4zk2+IuUz+fTFVdcoa5du8Z8m+Mxtq3ZquhG2+rcubMGDx6svXv32maHBtqjLl26hIaYNKbgBmCt5ORkZWdny+v1NrngRvtF0Y16DRs2TF999ZXVzQDiHlcsAexl0KBBKi8vt7oZiCFxUXQPGjRIXq/X6mbYkmEYkqQlS5ZY3RTbSklJUWlpqdXNiAkci80XPBZnz55tdVNsi2Ox6Thmmy94zD744INWN8W22tsxGxdFt9frlWtNgdXNQJxyjsq3ugkxw+v16mPX76xuBuLUAOcdVjfBdjhmYaX2dsxyyUAAAADAZBTdAAAAgMkougEAAACTUXQDAAAAJqPoBgAAAExG0Q0AAACYjKIbAAAAMBlFNwAAAGAyim4AAADAZLa6I6XH44n6GIh1De2vLdmf7RgLWKWu/daOxxHHL+JBY/bVxsyTmppqdSr2KrqDG8zj8cTExgMaq7791Y77s93aCwRF23dbcgzGWyzQ1hraV+20PzO8BAAAADAZRTcAAABgMlsNLwHQdN7icRp037ZGzTviKZfm9a3jxf2rNXl6qmYWXqIeVifVDiWUPaGejw3QewXnqIcMq5sDoAEcs2gqim40S/k7c3XOxly9P9+pEwz+2LQmQ/u0Pv9szdiSJknaMXqlvDPTW7TM3rM3qOiybvXO4y0ep4fCnvu0Vcu7leqcQ1OUafVGAQDA5ii6gRhiaJ9Kbp2tffP3yHW8v/Bd2uunGtf7gwaL5rbQ4aMZGum8N/Q8sSJbk95dorHH+5/PmjVLw4YN03nnnaekpCSrmwsAQMxgTHd7k7BDj5//O/3x75s1dfgtco7KV/q9W/WfhP9p/b0/lXNUvpyj8nXfjqSImILBN4Veu2Hdd9WvbS8MTU9dtkeStGvpQGU/+o1S/lyo4SNvq57fcSBiHcH5FegZT122R7uWDqy9foQ4dKKGLlsaKmITlKHxC8/RK9v2tGi5VQlfa13+SXI6nVH/9b7lLf0roUPDyzl3gda6XHIF/m0pqy64JemNN97Q1KlTNXToUE2fPl2vv/66ysvLrd6sMeaASvJ/qgHOO5TZd7me/1/HqHMZ2qGlvfI0wHmHBjjv0Ji1lVLgJ+3zehfrQ1W/X5HTqpc/wHmHOjyy1+qEAZvjmEXroKe7HTI6bdXMp7P0/ttPaJFjuwoGLdCIi87V9Bdfk6v7UZW/M1eDb3tRPym9QhlVPu36rUsD331a+VU+aXuhBkx6SqsH3KHRelt33Vapma8s1+juR6VtG7X64A80euKH2vSjGsNLHAe0/p4JuvyUx+T51Umh5zese0HPDPMX2P+v+AE9u+hTuSZ+J+m7FudpJ06nUwkJCXI4HEpISIh4HPx/48aNUWP3bn9e0i9btP4OvpM1rGCPXPXM4y1+rsV5GoGhRt9++63Wr1+v9evXq1OnTsrKytLQoUNN3sr2sGvhSF3U8w+qKugh6YDWrtkljfpBrfm+XPCp+m1/Sh+rSgllT2jAmKf1/Pm3a2yfC3WDsVCvfT5aA8+sknRA6x57Q6c+skoD9R+V5E/QRT0LQssvyZ+gMWtX6YWRnaxOHbAljlm0ForudmrM+PN0gvGdZKTrkms+1wzHr/yFs6Qu52brwu8OhebteftYqcrnf3Jmtm7yvhN6zej0J5Xt7eCP7Z2j0ToafYXbXtY9H9yg0odO9i/LOFbn5Zyty7/Yr2eGnSRJ8p6dpzt6VSpezzfx+fzbuKqqqvEx2qq3V5ypyS+2bEx30M6FDl2zKiNiWq0x4/tXa2rOPG3smCidIclZFDH/prDhJYoyxKQuhmGEivJ4d9quvdqrk9RDx2rkqGOjzzPjWp0m/75S1edC3eRdL0lyKF0XT/hcZ7z+peaf2UMJ//tUb5ZcrFHzuyqh7Bndu+FGvV9wsqQqSccq89KzddG2/XphJKe/As3FMYvWQNHdDjkqM9SnR/2FndHJrS/2Jyiju0+7lg7U6DVhhdixUu7eDhqdPkSLHt0l59QJKpZ01uTFoV7raI52eUs3j3grYlra2Xv0H0eaukhyn3JS3J506XK5VFVVJZ/PJ8MwIv4/ePCgUlJSasUY2qeS/JHavGCHivo2a7VRRVyhpGyOUoprzHDcaC36bHTtwEZcvcThcEiSOnfurOzsbJ166qk6//zzddZZZ0mSZs+ebdE7EDt6Tlur5fkTlOtMU2L5cC3edrkGqvbxumthVuQXpGOli9wdpGOO6PSb5+mujI/04V1X6MfvbdKivFtVdcwR6Wv/cXinM/I4PC0zWDDE5/EHtATHLFoLRXe8216oMS/erScCQ02UsEMFgxZoX/D1XnlyrZF0sERTr75T9/3gGd2XHn1oSGL5cD0eXE44wxCjeqUOHTqoQ4fa46Z9Pl+tu2kFr2By+Skb5bXyBMqyOUopHhv16imG9mlD3rPqWnhX6Ooml156qYYMGaKsrCxOpKzTsRpS8Ad9HPiQvjj/B3qv4Bylhc2RUPaErnvybv028OFuaIeW9VqofwZe9x1zjoZfMkGvbLtI5a//WTPuOFVShRQ4DqMXBXx4A83DMYvWwYmUiFD+1iqt6Jrsf7K9sPqEx2PO0aX9/1N34JnZusF4VY++9W31st6ZywmTzRBRcLfwUoHRvHFj2EmU49fUOd/OhQ5l5R6nd28+QbVO6ymbo/7OEVo3OU+n76ue/MADD2jw4MEU3HU6oHcWfKy98v8icPqlNzYqqnxN2HEphX6Cfnbp03rrzZ/pJ2cekQI/ad9gvKpH11Yfh4fXzNU9nyc3aj0AauKYReuhpzve9crTC1cP1OjAsJBeU3+mCYeX+nu6e1+p7HtGyvln/2CCv+U+Jk+gl7vL8Gs1af4CDR+ZHBh2kq780hnSoNvkXOL/Y3HW5MV6Jj2+TphsKbMLbjV0A5yAnQsd6le1Xd5dYW04brSWTJkjp/NelTvna4NrLjfJabJjNXzUn+R0PiNJSjjSV3PfHaAeOhIxl6/PzXr+pixdE/jJ+dRf3aAJh5eFes0kKfWCbF13z4v6528nhHrIHErXrdunSb3yNWC2/zg8/f5f64UzK6xOHLApjlm0HodhwzObPB5PrZ/j6+N0OuVaU2B1sxGnnKPy5XLVfd2QiP25bE7U3ufgyY7e4nGa6Cto0jW7Gxuzc6FDTw83IgrymjfqKXfO14blw5tdbDudTn3s+p3JWxyIboDzjqjHotvtVlpaWrOW2dTPo1iIbUq+HLOwUl3HbLiWHL9tzVY93R6PJ+pjINY1tL+GPkD7zJXLNbfO+brm/lo/y09XyrZW6gkPK/ITKyZp0k3BG/JcH/ppdMRTe+Rq5HdWjkvEurr20Zbsu/EWC7SlxuyrjZmnuV9SW5Otiu7gBmvJN3zACvXtr03Znx06UUML/qxX8s/WrM/2NDhMRJJScotUVNeLUYv8DOVvL1N+K+cJxIJo+6gde6utigXaWkP7qp32Z1sV3QD8hfewgj0aZnVDAABAo3H1EgAAAMBkFN2AjVk1ptPtdludOgAAtkLRDQAAAJiMohsAAAAwGUU3AAAAYDKKbgAAAMBkFN0AAACAySi6AQAAAJNRdAMAAAAmo+gGAAAATBYXt4FPSUmRc1S+1c2wJcMwJEkOh8PqpthWamqq1U2IGSkpKRrgvMPqZiBOcSw2Hcds8/H52XLt7ZiNi6K7tLQ09Njj8TT7TWxJrNvtVlpaWpuvt6WxRUVF+vLLL7VgwYJ2la/T6ZQkuVyuVllvS/KNJ6WlpZbuz/F2/JIvWir881M2fX+t2p9XrVql5ORkXX755XGRL8dvwxxG8KuYDQRvPZ2amtrsW1hbFdsSVuZ71VVXqbKyUs8//3y7yjc3N1eSVFxc3CrrjfV8WzuWfGO/zeRLvuRrbb4PPPCAjh49qrlz58ZFvrH+/sZCx5itiu4gO34Ts+M3z48//lgTJ06UJC1ZskTZ2dntJt9Y6ulmf479WPKN/TaTL/nGUr4HDx7URRddJEl655131L1793adr5WxdvqlmRMpUadPPvkk9Hj9+vVWNwcAAFtYt26dqqqqVFVVxecnQii6Uae33nor9PjDDz+0ujkAANjCunXrQo/ff/99q5uDGEHRjah27dqlf/3rXzIMQ4Zh6N///rc+/fRTq5sFAEBMO3z4sLZu3Rp6/t577+nw4cNWNwsxgKIbUb377ru1pr366qtWNwsAgJhWUlKio0ePhjqtjh49qg0bNljdLMQAim5E9dprr9WaxhATAADqF63ALikpsbpZiAEU3ajlX//6l/7xj38o/MI2wSEmf//7361uHgAAMcnr9WrTpk21pm/atEler9fq5sFiFN2o5b333gs9djgcEXfTeumll6xuHgAAMWndunXy+XwyDCP0+WkYhnw+H78Wg6Ibtb3xxht1vsYfDQAAovvggw/qfO2dd96xunmwGEU3IuzZs0dlZWVSoJc7KPj4q6++YogJAAA1VFZWRozdDp5IGVRSUqLKykqrmwkLUXQjwsaNGxuchyEmAABEKi0tlc/nk8KGZoYP0fT5fCotLbW6mbBQotUNQGwZM2aMxowZIwVuy5qTkyPVuF06AACIdOqpp2rJkiWh55MmTZIkPfroo6FpPXr0sLqZsBBFNwAAQAudccYZOuOMM0LPgz3c2dnZVjcNMYLhJQAAAIDJbNXT7fF4oj5uyXKINW8Zdsi35rx2aDOxxBJLLLH2iG1JvB3zjeXY1NTUZi+/tdiq6A5uMI/H0+yNR2zTYoOaugy75Bs+r13aTCyxxBJLbOzHBjUn3o752jG2rTG8BAAAADAZRTcAAABgMopuAAAAwGQU3QDQDrVkjGNaWpol67XLuEwAaA6KbgAAAMBkFN0AAACAyWx1yUAAQNvzFo/ToPu2NWreEU+5NK9vHS/uX63J01M1s/AScTNsAPGGohsA2hlD+7Q+/2zN2OIfm71j9Ep5Z6a3aJm9Z29Q0WXd6p3HWzxOD4U992mrlncr1TmHpijT6o0CABaj6AaAdsTQPpXcOlv75u+R63h/4bu01081rvcHDRbNbaHDRzM00nlv6HliRbYmvbtEY4+3umUAYC6KbgBoRxw6UUOXLQ09T1CGxi88R9PL9kgtKLqrEr7Wuvz0UO95TeXO+frDZR0aXs65C7SW4SUA4hBFN+Ka0+m0uglAq3G5XFGn793+vKRftmjZHXwna1jBHrnqmcdb/FyLc+CYBNBeUXQjLp122mnavXu31c0ATOfTVr294kxNfrFlY7qDdi506JpVGRHTao0Z379aU3PmaWPHROkMSc6iiPk3hQ0vEUNM0I6ddtppVjcBMYSiG3HppZdeqjXN4/E0++Ycbre72TcUacl6rYol39hvs4Lju/NHavOCHSrq2+zF1BJxhZKyOUoprjHDcaO16LPRtQMbcfWSunrrzdxWdnx/ybd954v2yVZFt8fjifq4Jcsh1rxl2DFfYom1c2z4B3zwCiaXn7JRXitPoCybo5TisVGvnmJonzbkPauuhXeFrm5ih+1MLLHE2i82Fr4A2aroDm4wO37TtmtsUFOXYdd8iSW2PcRGFNwtvFRgNG/c6NQb4RNGj406386FDo1/fIne/fgE7ZUie7fL5qj/+DUa/sx6Td0n6UT/ZDttZ2KJJdbesW3NVkU3AKB+ZhfcaugGOAE7FzrUr2q7vLvC2nDcaC2ZMkdO570qd87XBtdcrmICIG5QdANAO+Ioe0wztqQpfctYOVdXTw+e7OgtHqeJvoJmX7P79GmG5tXx2t7tz0s/LArN541yox6KbQDxiqIbANqTPnPlcs2t8+Wuub/Wz/LTlbKtlXrCy+bIOX6NJCmxYpIm3RS8Ic/1WtE1WZI04qk9chVYvWEAwFoU3QAQRxw6UUML/qxX8s/WrM/2NDhMRJJScotUVNeLUYv8DOVvL1O+1ckCQAyh6AaAOOPQiRpWsEfDrG4IAMSRBKsbAAAAALR3FN0A0A615Jq3brfbkvW2xj0FACBWUXQDAAAAJqPoBgAAAExG0Q0AAACYjKIbAAAAMBlFNwAAAGAyim4AAADAZA7DMAyrG9FYdr6clMfjUWpqqtXNaLKcnBxJ0saNG+Mi3+Yi3/aNfNs38m3fyLd9a2y+sbBNbHVHyuAGa8kORWzTYoOaugy75kssscQSSyyxxMZHbFtjeAkAAABgMopuAAAAwGQU3QAAAIDJKLoBAAAAk1F0AwAAACaj6AYAAABMRtENAAAAmIyiGwAAADAZRTcAAABgMopuAAAAwGQU3QAAAIDJKLoBAAAAk1F0AwAAACZzGIZhWN2IxnK73ZKk1NRUeTyeZi3DqtiWsDLfnJwcSVJxcXFc5Btv7y/5ki/5kq8d2ky+5NtSaWlppi6/MWxVdAd5PB6lpqbaKtbtdjf7Dbcy32DR7XK54iLfeHt/yZd8yZd87dBm8iVfM/JtawwvAQAAAExG0Q0AAACYjKIbAAAAMBlFNwAAAGAyim4AAADAZBTdAAAAgMkougEAAACTUXQDAAAAJqPoBgAAAExG0Q0AAACYjKIbAAAAMBlFNwAAAGAyim4AAADAZA7DMAyrG9FYHo/H6ia0qO2pqalWN6PJcnJyJEkbN26Mi3ybi3zbN/Jt38i3fSPf9q2x+cbCNkm0ugFNEdxgLdmhiG1abFBTl2HXfIklllhiiSWW2PiIbWsMLwEAAABMRtENAAAAmIyiGwAAADAZRTcAAABgMopuAAAAwGQU3QAAAIDJKLoBAAAAk1F0AwAAACaj6AYAAABMRtENAAAAmIyiGwAAADAZRTcAAABgMopuAAAAwGQOwzAMqxvRWB6Px+omtKjtqampVjejyXJyciRJGzdujIt8m4t82zfybd/It30j3/atsfnGwjZJtLoBTRHcYC3ZoYhtWmxQU5dh13yJJZZYYoklltj4iG1rDC8BAAAATGarnm4A9jZo0CB5vV6rm4E4lZKSotLSUqubASBOUXQDaDNer1cvuwqsbgbi1JXOfKubACCOMbwEAAAAMBlFNwAAAGAyim4AAADAZBTdAAAAgMkougEAAACTUXQDAAAAJqPoBgAAAExG0Q0AAACYjKIbAAAAMBlFNwAAAGAyh2EYhtWNaCyPx2N1E1rU9tTUVKubERNtaGttsd/EyvvbVpqbb05ODreBh2WudOZr48aNtaZz/LZv5Nu+NTbfWNgmiVY3oCmCG6wlOxSx8aex+dvxPbJjLGClaPutHY8jYokltuWxbY3hJQDQytyLsvTg550kScnbCnXaI+4G5799bUWrrDt5W6GudOZHrNPQAX10++hQm8xYLwCgfrbq6UZs8mmrlva6Xiu6Jjdq/t6zN+i5yyq0Ie9ZdS28S5llc5RSPFaemceq5NbZ+mb+Uo3d65/mnZleK/6LBRO0JW+Frj2+/vX2nr1BRZd1s3rzAPWqXHu/7lzZT9IvdOXs2q8nlg/XtG2Xq78MGTqgj2+/RQs+/F6dy9s6ZpZ2u/Iil3HwU63zzVTemZUR03+QN089Bz6ply/4ua7sftTqTQEA7RpFdzzbv1pTc+bpmwc2tbg4TXDnqeDQFGU2MJ+3eJwm+iSHTtSQh3+oyXlv6v/9IkGHO+xWya2L/QX38ZJ38xeafGl6g+v1ZT2itU+OUI861gPEssq19+u6u0/U2YN3q+Otz+vusKLY0A6t7vOwSh8Zrv7yn3rj0LE697HVejksfszsver/XGFEbE3/Kpwlx52f6Hv6i17s87B+n5xU/WIXafOQW7Qy8LTH/b/WYyMb9wUaANB4FN1xKKJnumOierfScg39R+tvnRUqnOsVKPg3dUzUsOulDL2m6ZISL5wsY9Nsff+N9Xpji1NvBGZPOjBej689pJvGveKf8KJT1427To9tXqGRzllRV9F7toA20eFgiR52HtKgnVeECuRogj3V629/VVN3z1L6tjzt/ixN0kS5F/XXaa+/pN13pcm9KEtTCmdo2rYndXWU5SVvK9TIcVvV4/5f62VXsqTKiOXPNO7WqoIMnRho29M7f6u8M7/Rx7fP0herX9XLZ1aqcu39umTtqNB8AABzUXTHoQRlKH97mfIl7Vzo0H2tsLyJhzL8xXzpJq242KlFdcxb7pyvDcu7SRqtRZ+NDhXfy8a+WD2UZP9q5f/fRrkK0mVoX2DIySSdfbzkcv0yYnhJwV96V/d071+tydNTNbPwEqWE9XS/9957MgxDwQv11Hwc/L+8vFzJyckRr4fPX1ecYRg6cOCAjjnmmHrnr/k4+Pzbb79VUlJS1OWG/3M4HLWmVVRUKCkpSVVVVQ2+T1VVVfL5fKHlV1ZWqmPHjnWus678DcPQ4cOH1bVr10Ztm5rT26Oj3c9R9vBb9M7nV6t/PT3OiQc/1aa3rtNFjx1RpzNna/fIwDbWAX2162RlfDhPV74gSf3q/ONcufZ+XTl7ryRp7+zaQ1L6P/eqSsLaEOzlPungm1o94jndfWalOhws0W8n9dXDO506UYYq196vKZpODzcAmIiiG60mYf8X+vLQzSrYPrnBYSaSpLI5co5fozHjr1f6C2OVtXy8Fu+apG4frFGnXanaq3R9X5Kj6nT9qKGe8xpScotUFHg8adIkqzcN2jmHjtWFdwzXNWu/1N1nptU537fvvaddj07XL7RfH4WNzU440lfXbvqjXg4bV+0fXnKTHgwMBdk6ZpZ235WmTiNn6+WR1csM9nr3f65Qvzxpn9zHRg5Ree/J3vpkZZ4GZeZpVUGyDO3QKuc2neqapP7yr6/jyDv1s9uW6uUL7mJsNwCYhKIbrWfPX1U8Kku/aMy8ZXOUlXucCna5lFk2R/cdXSnvLZ9pat+ztWzsi/rzGQ+r5L+XaKyjVK/pLM0MCzUSntSii/+kz557VqdsvqvW8JJNznslSYkV2dpStkTnn3++HA5H6F9Q+DSHw6GjR4+qY8eOoXkamj982rfffqsuXbrUmt7QMhwOhyorK9WpU6d6lx98XHMZR44cUVJSkgzDUGJiYsS6oklISFBCQkKopzs5OTnqOqOtO/z5oUOH1L1796j51Le95s6da/Veappve2dr4fAt+uSunypa2W3ogP68ppuGPJQih5Ijxmb7Xy/TS6d8rlP/+VP1lyGH0nV12QpdXceygidUVp84Wakj+kYb+0zVF6v9PdrBZYw98D+5jz1GJ0pyL7pRq7r3k8LGcQcduPsjZTPcBABMQdGNVtXFdY9GOu+p8/WkA/7e7Mw+c7V5l7/47v1olnYuT5eUrkWfjdYiSd7i7/T515L3H6/qP7kF6hE4OXLQfduUWDFJU99dorGO1Zp8wSKtLbyk1vCS8BMrf/Ob3zSq7S251qfb7VZaWlqzYu14bdPm5tuei26H0pU16UY98/k1uiHK6523vawZjgu1KtCTHPVKJN+T5HwnIu5AZl7EuOvgyZP+maWMF4JDUgKSk6Tr83R74ITIYE94UP/nPtFLU7/RJ7c9o38+dJeucy/VSWsv1e670vzDTNaeyTATADABRTdaT5+5crnqLqp82qrl3Ur9TwJDSySpi9aECvUdo1fKOzNdKedfpoP3LtYKRzdd+oD/yiopuUVy5QYuGRhYZlXHbVp15x16bnP30HqCPd0jnnJpXl+rNwriSc9Lb9LytV/qhig/OOx6/UlddEe+Tgyc9BjtSiQ1x1Ub2qEXbo28o2rN4SUKXG/7mRGfhK5g4i/or9eDp72qG954UgcyfxdWuFf6T830nawfdq+S3JHLfszqjQgA7RRFN1os2ANdn6QD4/WbT3+gXSkOnSN/gV563xfqUfbL0AmUOxc69PTwwMmUx43WpJ4O9avaLm9d47n3/FW/63me1u0cpqlvR14xxVs8Tg9ZvWEQdyp652l3b8kd5UzitKmbdbein2QZPLHxxp2dpbCrlSQe/FpfJnSPOv/DA7fr1A8jr6+dvK1QWb/N0KqCDJ372Gqdq0rpzM0qCRTwL/Z5WF+sfk6zTv5U7yT0VF6NK6N0OFiie5b30gPTmverDQCgbhTdaLFgD3SD9q9W0aW99ENJhvbpy1N+o736uZxOf8Hee/ZBFQV7psvm6JpVGepT8bhW3rwk6iUId75+v+4ecUD67StWbwKg2UKXB4xyucGO7l164keXKnzAVvDa3td+WPuGNhW987T5zkKNdBaGrrcdvN73y76faNq2JzXm4Jt6eOB2pX/4c52oo7XWV+TopQes3igA0A5RdMehyDtIZkgaLOf91UM7/D3ORqsPzfC+/6reSrheM+W/OU6fs/dp/bL1Sqy4Rvc+3ENzZw/WrNNcmvmPcRo68wRNfdelsXvnKPPCydK7kYV3x29e1fLFi/XTaUfl7fCqFl38ca3LFI54yuotjXgQ/S6R/aSVeboy8CxDWyPGXR/IzNNrP/+TbrjuE/V/7hP9fmplqIfbvSgrcIdK/1VNHtl0ihQojt2LsnS+8ZJ2f5YmQ2WhG90kls/QtKlHpEDh/ZLLP7xk3umPqNdFn6vnP5/U72XIveg8XVU4Q9O23R66csm3vbO14Kpf6soX/FdJueW5/NB1vwEArYeiOw6FX6c7mp7TXErr1UfjFnzQsjtVBq7BvbFj9W525VPD/Sc5ls1R//FrNOKpPdpS4H/tJyNnaudChwb8/U1tKAvMd/xcbdm0WtPPWqI+6z26adwrSjowXjP6vir340uUqQqVVF3G8BJYpubY7MbL0Muum2oVuGlTN+vlqeFTjka8tju03ppXN6nuJQ+26VxJ+ucPQ6+lTd2s30+tOW/N5VBwA4AZHIaN7ljhdvvP+ElNTZXH42nWMqyKbYnWbHNjrzjh01YtO+Updf/0tw3fXTLGBfebhrSH97etYpsrNzdXL7sK2nSdQNCVznwVFxe36jLj6fglX3vEkm90zb3CWGuyVdEdFE+XWLOyzfEm3t5fK/J1Op0U3bDMlc58uVyuWtM5fmO/zeRLvmbk29YSrG4AAAAA0N5RdKNOLfmpp7FDOlp7vVb8HAcAANAQim4AAADAZBTdAAAAgMkougEAAACTUXQDAAAAJqPoBgAAAExG0Q0AAACYjKIbAAAAMBlFNwAAAGCyRKsbACB+pKSk6EpnvtXNQJxq7m2mAaA1UHQDaDOlpaXyeDzNLn6sinW73UpLS7NVm8kXAGILw0sAAAAAkzkMwzCsbkRjeTweq5vQorbHUy8M+bZv5Nu+kW/7Rr7tG/lGFwvbxFbDS4IbzI4/XxJLLLHEEkssscQSGzuxbY3hJQAAAIDJKLoBAAAAk1F0AwAAACaj6AYAAABMRtENAAAAmIyiGwAAADAZRTcAAABgMopuAAAAwGQU3QAAAIDJKLoBAAAAk1F0AwAAACZzGIZhWN0IAAAAoD2jpxsAAAAwGUU3AAAAYDKKbgAAAMBkFN0AAACAySi6AQAAAJNRdAMAAAAmo+gGAAAATEbRDQAAAJiMohsAAAAwGUU3AAAAYDKKbgAAAMBkFN0AAACAySi6AQAAAJNRdAMAAAAmo+gGAAAATEbRDQAAAJiMohsAAAAwGUU3AAAAYLL/D/GzHPdH7THPAAAAAElFTkSuQmCC;" vertex="1" parent="1">
          <mxGeometry x="60" y="450" width="503" height="216.16" as="geometry" />
        </mxCell>
        <mxCell id="RB0Uhzs26PAhKy_j06YG-6" value="另外一个场景，就是发生了脑裂，也就是sentinel认为master挂了，然后重新选举了master&lt;br&gt;此时业务系统和master是正常通讯的，他把数据提交到原master节点&lt;br&gt;但是原master节点的数据此时是没办法同步到其他节点，导致数据不一致。" style="text;html=1;align=left;verticalAlign=middle;resizable=0;points=[];autosize=1;" vertex="1" parent="1">
          <mxGeometry x="60" y="710" width="490" height="50" as="geometry" />
        </mxCell>
        <mxCell id="RB0Uhzs26PAhKy_j06YG-7" value="" style="shape=image;verticalLabelPosition=bottom;labelBackgroundColor=#ffffff;verticalAlign=top;aspect=fixed;imageAspect=0;image=data:image/png,iVBORw0KGgoAAAANSUhEUgAAAtsAAAEpCAYAAABCwu4nAAAABGdBTUEAALGPC/xhBQAAACBjSFJNAAB6JgAAgIQAAPoAAACA6AAAdTAAAOpgAAA6mAAAF3CculE8AAAABmJLR0QA/wD/AP+gvaeTAAA7uklEQVR42u3de3xT9f3H8XdKoQVaEHUM6k8nzK1AHWADFIrckYpYYRNQsOIFRKgosspFZNyGXETETS0FuWq5TNSJBQWVmxcENTidlXaDgm4WxEnBFOTW5vdHLk3atPR2miZ5PR8PHjQn53Py+Z6ck3zyzfd8Y7LZbDYFKavVqsjIyBqPzc3NVVRUlF/lTHtpL+2lvf6SM+2lvbQ3ONtbW5kCpdi2Wq2+TqFCuQbagUR7aW+woL2BjfYGNtrr//yxPaG+TqC6VGbn++OnNmKJJZZYYoklllhi/UeIrxMAAAAAAhXFNgAAAGAQim0AAADAIBTbAAAAgEEC5gJJALVXjx49lJ+f7+s0EKQiIiK0e/duX6cBIEhRbAMwXH5+vixL0nydBoKUeewYX6cAIIgxjAQAAAAwCMU2AAAAYBCKbQAAAMAgFNsAAACAQSi2AQAAAINQbAMAAAAGodgGAAAADBIw82xbrdYajSOWWGKrJxaoCRU5Rv3xPCKW2GCJjYyMrPR2fSVgiu3K7Hyr1VrpJ41YYomteixQU8p7jPrjeUQsscTWbgwjAQAAAAxCsR1EqvJJsSqxUVFRfpezP7YXAIIBr5PwNxTbAAAAgEEotgEgQB3e0EkPfPyzJOnsnlmuv0uw7lDKqFEyjx3j8W/ekXol4s7umaV5R+r5umkA4DcotlFhBxeaZDaby/0vadNP0omNenTUVh2TVKj9Sm0VU+r6EfOzK52bTce1/cExWvdjyfvyM5Lsucj7fdO+LN+6Lic2KnludrmX52cklXuftR69Tcdq9FlFjQvJVuqIe6uncA3J1pI7/6pN1lCPZVv+87yejm8gSQrv+oiG7R3u/fEie2vR8uV6tcd+DZ68UpYlaXq1x357XPwMPWd7ylV4P2yapMevPe/rvYdA5fZeoUu9FhdbV473gPeSm3u8ngO+FjCzkaB0hdqvtFZ3K/eVTM1pW/XtXTfRJstEz2U2Hdf25HZanZCt9IGNvEQN0ZyBSWo2v4Xyp8QqOStTyZkzNK1glua0LYp/+OJqHZwSXencTGqqXktHa+k1D2vd589p+BXli2uY+Ix6JjfXtDFHq2UfeRORmC5LYtnrHFxo0h0bYmUe0EXNjEkDPnJ2zyx1+ORWfTShgxrbbIY/3uF1d2tVTqxWjVnptvSX0oL79arbkh96/kn/unq5ur58VFKstNt5f6xC3ntWubGfaM8/wyU5l09QXFqCVqTfrusLCn29WxEACrVfyxrt1g0/TVBcseXpd5n18E+Nyr0tk5qq75y/alvcI1q396/lfg8AjESxjWphynyhjELbrmHiM9q0ebrW/Zim4VdIx6N+p6guMTI3DFfo2W4a//5RHaiGF8YQxWrsPw4pOS1bw6eWr3A3qal6p25R1v1v69jK/oqo6IOe2KiUnnO0q27RKWV+zf5/9pB1yr/EBwjnh40ndo9XyvvP8gYRDAqjlfzSakkG9BJbd+j599pq8LSVRb3Q1h2a8GKkZqZ08lLsz5Cla552PL1S1tGTNTDyog5v6KQNnYvinb3aL3apbw+h0IbBzmQ8oxd/c0Ayp3ssbz19Z4n3mvyMJPWYeaBoQSNpRz+zFkmO9xdeV+E7FNtBIET2nmSj2HRc77x9VI3OH5XKKLZNaqo+S9McX/O10+R9UVLDcEnSxfAPtMjxwnjGPFc7lyVUrWf38iFKnVrx/TTO0Ql4MGut9NvUUtu73Zm/pLi19hfyRV8Osa9wYqOS09oqtZyFvjJnqMOIzQrLm6K/5oz36NmBb5zdM8vR0yvFjlhcVGCGZCs1aZ5WOI5b132mPO145n7t/cNadX79Lk381y8VcqGtpi1+xFW4Dt4dqzC9qN5jXrTHdf1WqUnzdGr2OntBm7Nc1795g/YN+lLdF+yTHL3O395xVVFiOctlXviZPRW37Xsw5WnHss/1fzfHKL1YL7Yk9R6zwvV36BlHD/XJ95QyYZ39w+KkUZptb51u73JSOxbb22M3QeaXpHPRD9RYDz2CU0jeq5r9YAel5qaXeE20D0W823UefhyzVYNHRngtwiXp0IKR2ufrBiGoUWwHgELt19JrVinyy9H6qfOdrheg/qssmtPWyzCSzBlq/Zd47Xl0r/re/abkpffVvZfgjHmuXh+4Th3/OdVrD+3pN5fpp1sGSG94z8+9OM0esk7WKU1kKhiolHfsPdz5GUkaU5hqf5E8sVGPTqrcG7iznSsahnvtTT5WSgFdokdEsn+drl4yz/Zc6uohST0qS0WL6tJyvv1Vnen+jLaU8gFj8ODBRfvSZivxz7WtwkKPdZx/e1tWPL6wsFAmk6nUbXtbfqm/i+fgN3KWq8fStlqTPkvXFxTq3Acf6Ks6PXS97YBSk+bp87FLZOlS31F4j9W85uv0eAt76N//vFoxizNkcRTYiSvi1HNCB7W48xN9dM2lh5GEZb+o1vv+pG+X3Ge/aHHCDM2Le8lVjHece17TFy+3F9g5yxU3bqN+nX67rnff3KHXtD4+Wc/ZntLZyeXo2S4otI/ZXnmVnl9wSndPilNjm83es227TL0n/F0Wbz3bfva8ms1mSZLJZPL45+R+OyQkpMRy533u/xdfbrPZFBISUuY63pY7OWO95eX8Z7PZvC5z5nypxyz+94ULFxQWFuZ1nUvtr8LCQoWGhlY4B5PJpIsXLyo0NFQLFy4s8VwV1D2g9U/8W+3/maqOjsJ6z4KPXYW0swMp+cRGPTopUlOW31z02pk5QxEZw2Wd0kQ7Hpyu7+emafjkFfq14+60tDRFRERc8vnw1u7z588rLCzsks+HyWTSb3/7W/Xs2dPXhz1qCYrtAGFrsEOpsddpcU6mkmV/wYkb+qjavP+s7vTy1VkDy1Rd/eY65VtmOIZADNW0W75wFeN9plyplPct9q/dTmxUSs9/SMO9PHDmDI2xpSi92TbtVFEh794zbVJT9U09KkvmDEVkOPKts0mL+n2qRa4NFRW2Z8xzNaUS+8D1Auz2OK79o+M6criZLP/+WMcGeha13sZSH1xo0szfnvLoJXGOK/y1l/3prWB3DiOR2wcfb0xneutP80rvyT98+HAljwpUVmHdozp0MkTXRxYqrFs3XV9QqLN7Nig19mF9FN/AXmgWRqv/LV9r7tFTkqPYbj/yPldPc4sB89X/gW/0n5COalxQvsI09EyC3hp+tasAHtd3imP7Z7Vj0xa1H7muqCf7um6699w2e56N3TbScpRebCmd3SO9Wt6e7YJC6eAHeuqa/hrnKKJb3PmJHjdiiIuPFf8gidqnzoXWumP5BMdrov11fURGkuJirixzOEh+RpI6Ztytg8uiZZLUa+lopbWKUZJbob5ly5YaaUN4eLg++ugjX+9K1BIU2wGk9xtFQxBsMQ/pyR7ttPrD2bpzYMl1w/JGaLuz5/fyIRp791DNPPyT1LaRDr41W7+Ze6roBc1x/9KCYhs5sVGPLu6ip5c3kk7YF/3vlw/r08RH1cM8tewC04Ce7bLY9F8dTJ+kkdP/qW9U9hCVQu3Xu8+N0y2fX/qinPobhipubS+Nfz9dFku1py1J2rhx4yV7USQpPz9fkZGRXnuwLtVrc/r0aY/enor05h09elRXXXWVx3qhoZ4vLc5eRb/QcpQ+uH+WujqGUwx26x0Oy7YPAykSqx96npAcM360bN64SmOwT99wja4uLP343/+SfRiHSxNp8I8hGtjY+/qDy9uzLenwJ8v0i92fybyr6K64Pn1Uf+s2t2sR7I9f6hCWWsxisZT5bYzz/++++07Nmzcvsbw83/bk5+erYcOG5V7ffbnValVERESFvi1yLnM+bnkep/jyH374QVdcccUl13e+9rjfPn36tOrXr1/hb8Uk6cyZMwoPt38LG6JYjfkp1n7H5UP07PKSz19EYrr2ebnAvM4nkzXA/ISGDRumFf+626OjJ0SxGpu1U9EPTtK6G+3vN2PGjFHjxo3LlW/xfX327FnVq1evzOPHZrNp6dKlOnv2rK8PedQiFNsBwnSmt9q4De00qamubVH65HF5fVvpV16WO3uAr03wLDSbtbpLchv2Xaj9WnbtfzXspwkeheuVV14pJabr08T9SmsVo9bdn/E6/tqInm1vDs2br/89PkVxmZv02NThOhb9Z43Z9JPiyhhbfibjGU1M/pPyj81QfMfLtdgxjjrkxCFlDW2t2/S5Ulsl2YerDH+l5NCaahhe4q5ly5blWs9qtVb6l9VCQ0MrHVuvXj3VrVu3WtpaW4THz5Al3j6kpOOcZ9Vm8SNKUFljlfNqJC+P8eMuxYp7646i8dcqu2dbjjZ9PMqqxT8kqXfe/+mejYMdPfmz9LDpVqUut1+LUGIYifyn0HbyNnSjuLCwMFcRWFF16tSp9HlUlfO3KrG5ubmV/tXb6szZ+3A+T85hfHdeUTRk8Eznp7RzWYKaar8atLpbA8wln7sz5rna6eg8GjBggOHtXbp0aaW2j8DFPNsBylU0tyj/lEnujhz2nNf0WNbaohsnNmryb1ar0eEJpV7M5xzS8Wniy7rOy7zZ9p5tiywWi3bPbK3W03fKYrHI8u4UJRRWvWf7dJ3Dei+5uWa0SVZH7deS/ie07IFoNUj8o268e0XpF8uc2KhZf7xcyx6IlmJm6cOcbrK0irHP2Xr0Ky2/roWidIOSszJleXeKRjgmZPCYQ/um+dr32nDmzPZTZz9aUzRf9XXddH++vagM/103JXy1RKmHiz5YHF4333Nua6PYmig+rr2+TNuqr+o4XrZDsvX8wk90qnjx6Jgz27Ikzf7vqaHqnddPd92Up7t799a56Ae0I22p6/6vHjUr8vhB/XLgQLU8ywwj8B3n+8Duma3Vf5X9/eGVoe2V8o5Fn1ne1twb7b3FzvcX9/cL1zLH+0i3G57UFot9GweqesE9UEUB07NttVprNK62xDo/Zdsa7NCfH9+m3o4XldMZf9T0rVO0OLVi2zapqTr376Pp41dp30DHsJTMGbpjQ6w0xF7E73h8u27Ym1auaZQiEtOV7/jqLz/nUKnrna/7gVJbTdKKhuFqPX1n6S+MmTMUn1jU21ya2A1PaPV0+1SEBxeaNTE5S/lXSFKsktY+o2bzs732SKf0nKP6r33hapv7TC75GYc0qHXzUtvpGvddzT3bFTlWasMx6e/Cu3XWd0lJMjtnHBm/WGMjL0rqrUWLpZQJI2R2DKsYPHmlHo8s37CR8BvvVHLaPPUeE+6YjaSCecXP0G7NUtfR2yS38daNCwolb521jh7ubdeP1Ud/66MT6+drQ+ckfXXzVqWMHGlf7uylbzlKT4RkK7XRZt0z+j3XJmJH+PrZqD6Bfh75a2xle8aroqbaW3xdf32OalusL46ZqgqYYrsyO99XX9sZEWs601uzHz2rhW3baVfdUIXljXAVpBXtq4pITNdLWSbd4Rgcmj1knY7NPKRmmUXT91VUfkaS+ky5UiP6DtLdm/Yp3W0bEYnpekWSbhlgv7izrO3kHFLLxSllFtr5OYdcU0AdXGhS4r+36uCyosK3YeIzeuPtdkra5DYveOYMmUdsVv/0L0odZ34sa62uTUhXdQo5cUg5YSbdUMY65T1Watsx6bcc8197PRYje2vR8t5uCxyFtq2Jek/4u3q7D+mI7K2FG9zmoy6+3eLzbLccpa8e9Zzlo8Wdn8h9hLhreIuT27bHboi2D+1wTA94LvoBfbRihRbZbJLN5ryswtWGRdYdShk5Uu8r1j7+urFk+ulWrVk7tGgYia+fi2oUyOdRsMVWVU3l7L6uP+5nf4ytrQKm2IZ04ZcDtejLkldDlphnO2aWDizzXOe6iTalF7vt/iuRBxeu1aDWFewmd7DpuD7Z1F5/zXxMnXRc25OjZZ5d9pg5b/Ol2nRc+zZH6Ja5ZQ+NiUhMt7clc4YS/721xJhxk5qqT+oXUnK0kpSttJBk9RvfUak5Fs8ivtgP1Zwxb9XOiZ5TGbaevtPrD9qo2GwkHlMRFls/e+Q6R687UA1ajpJlySj738UK98eLfRgo+uBw0V6wvxHtKuDD42eUKPRfLFcCQMWktopxTFnrPt2qWW87/3zFXHR9Tz+z7rpjid49MtA1neyzpbwGf2B+wvV3eX5cDDCKyRbEcyAFygUpznm2G1fg58nLlDlDSQdTPHp944ae4he4arnafDybzWZZllT8GxGgOpjHjpGlnNMF1ZYLBmsq1h/bWxU10V7n7EvuxxzPb83E1lb0bKOkmFma+ZZJZrN9KiZ+6hYAAKByKLYDQIhiNfbb2GrdZvFhJAAAAKg4pv4LIhW5Mtg5bV1lYovLzc2tkZxrS6yv2gsAwYDXSfgbim0AAADAIBTbAAAAgEEotgEAAACDUGwDAAAABqHYBgAAAAxCsQ0AAAAYhGIbAAAAMAjFNgAAAGAQk81ms/k6iepQmR8SiYyMrPTk+FWJrYqayjkxMVGSlJGRERTtrc5Y2lvSnXfeqdOnTxu2faAsERERWr9+veGPE6jnb23Luba3t/j7Z6C3t6Zjo6KianxfVFXAFNuVYbVaFRkZWeOxubm5lT5Yaipn569HWiyWoGhvdcbS3tqfsz+113ku7tq1Kyja6+tY2lv7c67t7S3+/hno7a1NsbUVw0gAAAAAg1BsAwAAAAah2AYAAAAMQrENAAAAGIRiGwAAADAIxTYAAABgEIptAAAAwCAU2wAAAIBBKLYBAAAAg1BsAwAAAAah2AYAAAAMQrENAAAAGIRiGwAAADBIqK8TqC5Wq7VG44Il1n19f8mZWGKJJZZYYn0dW3xdf8jZH2IjIyMrvV1fCZhiuzI732q1VvpJC5ZY5/r+lDOxxAZirKrwJuOP7SWWWH+PdV/XX3L299jaimEkAAAAgEEotgEAAACDUGwDAAAABgmYMdsAUBOioqIqHVuZcYgWi6XKOVdl/GNV2gsAoGcbAAAAMAzFNgAAAGAQim0AKEN+RpKSNv1UtODERj06aquOSTq40KRpX5ZjIyc2alLUs9rnvixzhiLmZ/u6eQAAg1FsA0AZGiY+o3u3RbuK6vyPNul/ifFqdom4gwtNRUX65UP01Lt5unf0Nh2TvdCOT7xc26dE+7p5AACDUWwDQBlMaqq+c/6q/L9uVa4+10sTP9eB2b1kNpt1x4ZYvX2fWWaz/Z97T/V1E22alTVB6350LIiZpQPLEtRM0smC2/V6znjF+aA9+RlJau0s+gEAhmM2EgC4lMuH6Nnl9kJ10r2vK9/RI31woUmrE2ya09Zt3RMbldJzjnbVdby8vmLWojI2HXq2m8a//6yGX+HrRgIAjEDPNgCUIaVtO5nNZk37UopITHcV2qW6fIgWffmFLBaLPrO8rQVxueq/yiKLxfHv3SmKu32d6/a+TEehnTlDrUdv04Et97h6ypM2/WQv3h05xLf8i+e4b7f7nDk65WckeW7H8eGgx8wDamCZqgFuywu1X6mtYkqsb9NxvZfcXFO+zlRqqxjFt/yLr58OAPA79GwDQBkWffmFDi40aWXISb2X3FqT97nPOx0rbTDrbcct915qm45re3I7rU7IVnpbezGddDBF6QOH6KnfJSlpU6rSBzbyeKwGlql6csBOWSyNpMwZMo/opdbmudr55Rd62rG9PvNvVv6UaHshnNZAE7/8QoscxXW/QX/RvpzxisucoX7jOyo1J11xkk6/8Yb2aZDiJtq0u1WSOmbcrZ2OIS2F2q+0Vndrz4KPZRnYyHG7i6a1yNSfHT3279/6nhbnZCrZ108GAPghim0AKIeQwsvUN/WoLI7Cdkxhql4eeFY7Hpyu7+emeQ4DObFRj/Wco3Pdb7eP757tvGOz29+9lKSdHgV3WN4IPey4XRgzUCNPv6rccQmOizGbqnP/PlKmfV2TmuqmqQNcsRFdB+rGs9+5bhfUP6xDP0pxV0gNBw0qdXz4mYxn9Fz3Z7TT8bghilW/kV9r5uGfJEex3XLxfT4ZXw4AgSBgim2r1VqjccES676+v+RMLLHVFVvaLy8ey1qraxPSJZ11LbPpuHY8OF2n7r1GT9/VUItzvvAsUF0920XFtX2oxwH1X2XRnDpSXt9W+tUlcro654iOKVq/dPR0u/e0hzbppvY/SnExs7R9fpJ69LOPF++/yuI5rrwY+7CSqW5LYpU95Kg0sIkk6doWnj3wFdnvtfn5JZZYI2OLr+sPOftDbFV+EddXAqbYrszOt1qtlX7SgiXWub4/5UwssUbG5mckacSSZ7V4oudym/6rf6+P1g1LJ2hPTvm2FZGYLkui40ZmxfI4nfFHPXxxtXZaHD3fJzZqYtwHJbedOUNxQx9VmzIuwjxjnusaVuLZpuNe1y/vvvPH55dYYqsr1n1df8nZ32Nrq4AptgHACDYd15HD9jL04EKTEv+9VTtzioZ2/Oq6pZrU71MtkpQ9dZ3yHevdsSHWy9bch5HYtZ6+s8TY7co4uGKo3q83XjdIyn9zjt7sOk3Dr7APR7nXuqrUuIiuA3XLE5P0/JcJrt7vQwtGat+oFRrGDCkAUGUU2wBQhu3J7bTh14+pye2P6JO9Nh0oVoBeN9Emy8RLL/M2jKQqGiY+o+febqcBZvswkkGzM9T9/DuSpAa33aKTrWJkbhguSWr93E6lO/JukPhHPTzxbg0whzsK/SFatEtK6dlOZsd0hf1XWTTnCsnm650PAAGAYhsAyvD6/+3S8pRoFabsV5pbAetNlebMjpmlA8uKboYoVslZnmNLIhLTdcA57ERNXRdsugy41fGHPdbb7CEh3u67fIgWfTmkxLomx2P09cF+B4BAQbENAGVInWqfVzukjAK2XGJmKT3G160BANQ0ftQGAAAAMAjFNgAAAGAQim0AqIDc3NxKx1Zm3lnnT6j7ar7bqrQXAECxDQAAABiGYhsAAAAwCLORQJK0e/du7dy503XbZrPPsDtz5kxJ0oULF9S+fXsNGTKk0o8B4NLeeecd7dmzx3XbeS7Onz9fdevWlSTFx8erX79+vk4VgKS9e/dq69atrtvF3z8lqU2bNho6dKivU4WPUGxDktS4cWNlZGS4bptMJknyWNazZ09fpwkEvNLORfc38/79+/s6TQAOjRo1uuT7Z5cuXXydJnyIYSSQJP3ud7/T5ZdfLjk+lbv/k6SIiAiKbaAGmM1mXXbZZVIp5+Jll10ms9ns6zQBOERHR+vKK6+USjlnGzVqpE6dOvk6TfgQxTYkSXXq1FFCQoLrtslkcn06l6Trr7/e9RU2AOOEhoZ6fLAtfi727NlToaF8KQnUFnXq1NGgQYNct4ufs507d+acDXIB8+xXdmorX02nVRtjO3TooPXr13u9r0+fPrUyZ2KJDcTYTp066Y033vB6X5cuXSr1+LW5vcQS6++xN9xwQ6kxN954Y63M2V9jIyMjK71dXwmYYrsyO99qtVb6SQvE2Pj4eDVs2FCnT592ff1lMpkUFhamG2+8sVbmTCyxgRjbs2dP1a9fXz///LPHuVi/fn1169ZNYWFhtS5nYokN5liz2ez1/TM8PFx9+vTRhQsXal3OgRhbWzGMBC716tXzGEri1L59e9WvX9/X6QFBIywsTL169SqxvFevXhUutAEYr27duvr9739fYnmXLl0UHh7u6/TgYxTb8NC7d+8Sy2666SZfpwUEHW/nordlAGoHb5MI9OnTx9dpoRag2IYH51dhzgs8wsLCdPPNN/s6LSDoxMfHq379+q5zsX79+oqPj/d1WgBKcf3113u8f4aHh3v9hgrBh2IbHurVq+fx6TwmJoYhJIAPhIWFeRTXnTp1YggJUIvVrVvXYw58s9nMEBJIFNvwxv2TePfu3X2dDhC0evTo4fq7a9euvk4HwCXw/glvAmY2ElSfzp07KywsTAUFBR5zhwKoWb169VK9evUkt+nDANRe7du3V1hYmAoLC/mlV7hQbKOE+vXrq1evXjp27FjATb8D+JMGDRq4hpI0aNDA1+kAuATnOO2TJ0+qYcOGvk4HtQTFNrzq27ev/vvf//o6DSDoMQMJ4F/69u2rH3/80ddpoBYJ6GK7R48eys/P93Uafsk5Kf+zzz7r61T8VkREhHbv3u3rNGoFzsXKc/+BDFQO52LFcc5WnvOcnTdvnq9T8VuBds4GdLGdn58vyz33+ToNBCnzmlW+TqHWyM/Pl2Vzqq/TQJAy35rs6xT8Tn5+vj61PO/rNBCkOprH+TqFasVsJAAAAIBBKLYBAAAAg1BsAwAAAAYJmDHbubm5vk4BKKGix2VkZGSlj2VfxVamnUBNq8gx6m/nIOcvAlFpx2VUVJSvU6uwgCm2/XHnI/BV9Li0Wq2VPpZ9FZubm8v5h1qvvMdoVY5nzl+g+gTScckwEgAAAMAgFNsAAACAQSi2AQAAAINQbAMAAAAGodgGAAAADEKxDQAAABiEYhsAAAAwCMU2AAAAYBCKbQBwCsnWkq7Pa+OpgPm9LwDVLCTzRV2X/A8dk8nXqcBPUGyjQi5krVO7d7/V2RBeZICAdWqHHuuVyocOAKgGFNsAUBuY8rR9ymIKXAAIMBTbgSLkOy15bpveyfuXUpa/KPOaVfYe6DpntHPLQpnXrJJ5zSotzgv3iElNXeK6b9xhW9F9x95xLW/1mVWS9M1Hk9V53zmF5m5X11Uri9Y35Xs8hnN9OXrCW31m1TcfTS75+IAPnXl3lsy3Jst8a7Luee9cqevlpHV2rRf9xH79z2SSspYrrvcm7a/j9hJabJn79kus642tifo8dYt+GDRCHRPSvBfdjmEuf//3HqUkjC7KKeSktj/xB9fjzcwO84hJ7XW/97a63efKMWu5zHe9qp0Nv9L8u0YXtdmU5/EYkUuPerQ9+on9yt7+5CX3J+A/8rQj+Q/qaB6nuLbLtPZkXa9r2ZSttFaj1NE8Th3N4zRsy3nJMdykS+sM7VUd17qey4q239E8TnWePubrBsMgdKEEEFudHE38rLX2jR6tcP1Xqc+/qRv/81s9efdUWepe0IWsder62sdKHNNB110s0De7c9TvkXFKvlggHXtHHd7aoW3/d7MSLlr02CaT5t4/Wgl1L0hH/6ltF2KV0HWB9l6xTh3+c6P2JfxK4YU2e6G9eYnG/nKMsgZEum6PO/yYnm9hH2rSMPNVvX7bX2TpelbSWV/vJkDKWq5e89rrxd2/V2xBoX7e+qH21+muWFvJ9V7q9bksY87ZC9MeC5Ty7hKt6ddN99gW6M2vhyo2+py9EH35LbWaul6xBYU68+4sj+2feXeWbphytT6aa9aVNlvpeRVGK3nnSiWf2qGUoffrKcVq0ivjNKTxRdcqtnr7NWV1vD5650UtMmUptccC9b+pkya98qYsjS/aH3vsK7rN8dg5z1nU+f3VSi4olLKWq+P4VdrYcZyGXPaDtj/+uPY9sV6WvmFSSLbefuu0lDBKlrU79NigLMW98YjjsU9o+9SRGnTNC7I+2dze3qkjdc9767Wmr72wj/hiueb2WizL5jABgSBn4QDd1PJ1FaQ2k5SnLZtzpFuvLrHekQWfq33WKn2qAoVkvqiOw1ZrbdeHNDymu+6xLdSbXw9R5zYFkvL03gtv69qnN6iz/qcdySN1U8tU1/Z3JI/UsC0btH5APV83HdUsYIptq9VaDVvxf/d2+K3CC89KukoD2h3RX8OS7AWzpLq/ul7dd1xwrfurbt2kiwX2G1ExGnn6K9d9tjpH9HV+HSU0uSA1/50SdMH7Ax7do8lH+2rzwMvs27JF6MZfX6WxP+ZLLSIlSRej+mjsFeekQl/vnZpXmeOyKseyP8b6SmHdozp0IkSxjQtV/+YbFVtQWPK7vlajNFOOXtrCaN18x9fa5/Z3u11HNDO6uXTyc729p69undRQCsnU6rnfqH/aXMUW2GMbdOqm22Z+q29DOujKAtulk2vcW4u29bYXx0Ofl4oV3MNGdNGVtnOSzZ7HZNOTrvsbdOqm7ud+cq3b8qHhUoHj5GvTTffnv+vxUK8fOqE1fZtLhdHqn1BKPgde09SP79Hu+VfZt2Vroi4922mQM1ZS6JkEjU+oX/RYtUxFjlF/PI+C7fytKS1yjumYmquZmmjArU28rzP5TrWQ/b20IKa77s/fLkkyKVr9Rn6t37x1RHPbNFPIyc+1dUc/3Tq3oUIy1+iJnffpo9SrJBVIaqK4W9rppgMntH5AM183u1Yo7biMjIz0dWoVFjDFtj/u/OpmKmipNhEFZa9U54QO/Ryi6+oW6JuPJusPB1sV3ddISsqvo4QmbbXo1mMyv7lE6ZK6dL/X1UvtTUHdf+iOFf/wWBYWlaezIY1UR9K5Jk3sveBBqKLHpdVqrfSx7I+xPtNqlHY/Nkvd7hqt+ZISF63QzGgvQx+ylsv82H63BbH6V6K9wGw5bK7G3LJP+5P/oFaffKCld47W024FcUbKSGW4RYZEtFWnEyFq9ckMdfvL967lXh/71A6lDN2g9730bJvOxyqmWdnnua1eruuDRE5aZw3ZHFt0ZxMp8VgdDWncRH3mzdOCHk/InBGu/Hajyux5v9hgmx7ov81jWVS7o/qfKUpXSjrZ5WpdU4vP8/Ieo/54HgXd+VtDWk7comXJI5VojlLomQQtPjBInVXy3MtZGK87NnieYzfl1pEuu6DrHpijx2I/0d7Hfq/fffiBFo16UAWXXZC+s59TD5s9z6kWcc7ivvaeSzUlkI7LgCm2UUHH3tGQA3fqb44hJQr5TqnPvynXW36zfrLcI+nnL5WydrkW3/6wJjTxPgSkzoX2WufcjrtCW2n94YDPNbhphiw32Qvqjo/8RTGvjNMQ946rkGyljt2jxLS1rmI4J62z2jnvv+wG3dxzpDYdSFDeri+UMuJaqegMKqWAvyg5H9el2BjqHgu0ql4nTXplpRY1vmiPqays5Rr2yuOu4SzO7R933u8ctuIYFtIi7QVZH2zudVOhZxK0xLkddzaKAgSqJuqd+ro+dRTU/ZKv1oepNyjKbY2QzBd118rH9ZyjELcpW0tbLdS3jvsLL7tBCTeP1BsHbtKZt77Q5HHXuoZTll7Ac04FGi6QhCTpwte7taKh4+LFY+8UXcjYoKVubX6y9MCoGN17fq+e/XdRQXAhax0XQqJWO/POmqILENt00/355ShoT+3QC39vW3TbMZRi9bpV2rprhG5r4/ho6Rhisv6lj+0XFjpik5fklr19U562T3pLv3jjJX26bYxHb3a1tXvbhqLzPCRbz6Z+59GWUrXppntsm/SXbT8XbevdWZ4XYgIBJU/vLvjUNZf2dbfcV66oM5vdzjHJNTzkpbTV2rb1XtfrREFMd/s5taXonDq9eZamfs17ZyCiZztYNeunja0n6w+O4R+de/bUyNNb7X1szePVfvOfZf7flZKk0zFjlOXo1a7bpoce3PGmuuaGO4aXXKXkcbcp9fk0mR0vMF2636vnm3AhJGqvBjd31g89RriO2etnLdaa4sVtYbSSl8TL7BgOkt9ulP46+D9a5tax26BTNw1+eoOOzxrp0ePbcsxevZ3WWQkD7F8t24doXFV2L7CtifrMn1C1nuziWo3S+qGdNcQx/KNVyr0aeTrN3rNdGK3Rv5kl8632IS2hZxK0e7djTHbj3kq+Y6qG3PWVpjmGlyTvniz1GCvzs4599uhirYlm1hEEqiZKuPUfMpvXSJJCLrTVrPc7qlmx72sLYx7Q2vvjdYdjOMi1T96jkaeXunq2JSnyxm66a+or+va5ka5ebJOi9WDWRKlVsjpOt59T181+Ruvb8N4ZiEw2W+B+B2g2m2W5p3yfRoHqZl6zShaLpUIx/jhuMzc3V1FRUWWuYzabZdmcWqntA1VlvjW53OdieY7n0gTS+Ws2m/Wp5flKbROoqo7mcRV+/6zNGEYCAAAAGIRiGwAAADAIxTYAAABgEIptAAAAwCAU2wAAAIBBKLYBAAAAg1BsAwAAAAah2AYAAAAMQrENAAAAGCRgfq7darX6OgWghMocl1U5lv0xFqgJFTlG/fE84vxFoCntuKzsr6X6UsAU2/648xH4Knpc+uPPPVclFqgp5T1G/fE84vxFIAqk45JhJAAAAIBBKLYBAAAAgwTMMBJvIiIiZF6zytdp+CWbzSZJMplMvk7FbwXSV2BVFRERIfOtyb5OA0GKc7HiIiIi1NE8ztdpIEgF2jkb0MX27t27y7zfV+PccnNzFRUVVeOPW5HYJUuW6MiRI1qwYEFQtLc6Y6vS3kBV2rkYbM8v7a39sbC71Pun/PT5DbbjOdjaW1sFdLGNysvIyNC5c+d8nQYAAIBfY8w2Svj666/1/fff6+TJk/rggw98nQ4AAIDfothGCXv37nX9vX37dl+nAwAA4LcotlHC5s2bXX+7F94AAACoGIpteMjJydE333wjm80mm82mH374QZ9//rmv0wIAAPBLFNvw8P7775dYtmnTJl+nBQAA4JcotuHhzTffLLGMoSQAAACVQ7ENl//85z+uISROzqEkhw4d8nV6AAAAfodiGy4ffvih62+TyeTx65HeerwBAABQNpPNvRvTj1mtVl+nUKFca+OvI40ZM0ZZWVmy2WyuQtv5d1RUlNatWxdQ7TUK7Q1stDew0d7ARnv9nz+2J2B+QbIyO98ff4rUqNijR48qKytLcvRqOzn/zs3N1bFjx/Sb3/ym1uRMLLHEEkssscQSW9sxjASSpF27dl1ynVdffdXXaQIAAPiVgOnZRtUMGzZMw4YNc902m82SJIvFIgXoJ00AAACj0bMNAAAAGIRiGwAAADAIxTYAAABgEIptAAAAwCAU2wAAAIBBKLYBAAAAg1BsAwAAAAah2AYAAAAMQrENAAAAGIRiGwAAADAIxTYAAABgEJPNZrP5OonqkJubW+GYyMhIWa3WSj1eVWKroqZyTkxMlCRlZGQERXurM5b21v6caS/tpb20119ypr2eoqKianxfVFXAFNuVYbVaFRkZWeOxubm5lT5Yaipns9ksSbJYLEHR3uqMpb21P2faS3tpL+31l5xpr/9jGAkAAABgEIptAAAAwCAU2wAAAIBBKLYBAAAAg1BsAwAAAAah2AYAAAAMQrENAAAAGIRiGwAAADAIxTYAAABgEIptAAAAwCAU2wAAAIBBKLYBAAAAg1BsAwAAAAYx2Ww2m6+TqA5Wq9XXKVQo18jISF+nUaaePXtKknbt2hUU7a1OtDew0d7ARnsDG+31f/7YnlBfJ1BdKrPzq3IQBkusc31/yplYYoklllhiiQ2+2NqKYSQAAACAQSi2AQAAAINQbAMAAAAGodgGAAAADEKxDQAAABiEYhsAAAAwCMU2AAAAYBCKbQAAAMAgFNsAAACAQSi2AQAAAINQbAMAAAAGodgGAAAADEKxDQAAABjEZLPZbL5OojpYrVZfp1ChXCMjI32dRpl69uwpSdq1a1dQtLc60d7ARnsDG+0NbLTX//lje0J9nUB1qczOr8pBGCyxzvX9KWdiiSWWWGKJJTb4YmsrhpEAAAAABqHYBgAAAAxCsQ0AAAAYhGIbAAAAMAjFNgAAAGAQim0AAADAIBTbAAAAgEEotgEAAACDUGwDAAAABqHYBgAAAAxCsQ0AAAAYhGIbAAAAMAjFNgAAAGAQk81ms/k6iepgtVp9nUKFco2MjPR1GmXq2bOnJGnXrl1B0d7qRHsDG+0NbLQ3sNFe/+eP7Qn1dQLVpTI7vyoHYbDEOtf3p5yJJZZYYoklltjgi62tGEYCAAAAGIRiGwAAADAIxTYAAABgEIptAAAAwCAU2wAAAIBBKLYBAAAAg1BsAwAAAAah2AYAAAAMQrENAAAAGIRiGwAAADAIxTYAAABgEIptAAAAwCAU2wAAAIBBTDabzebrJKpDbm5uhWMiIyNltVor9XhVia2Kmso5MTFRkpSRkREU7a3OWNpb+3OmvbSX9tJef8mZ9nqKioqq8X1RVQFTbFeG1WpVZGRkjcfm5uZW+mCpqZzNZrMkyWKxBEV7qzOW9tb+nGkv7aW9tNdfcqa9/o9hJAAAAIBBKLYBAAAAg1BsAwAAAAah2AYAAAAMQrENAAAAGIRiGwAAADAIxTYAAABgkFBfJwAg8PXo0UP5+fm+TgNBKiIiQrt37/Z1GgCCFMU2AMPl5+frNUuqr9NAkLrdnOzrFAAEMYaRAAAAAAah2AYAAAAMQrENAAAAGIRiGwAAADBIwFwgabVaazQuWGLd1/eXnIn1r1igJlTkGPXH84hYYoMlNjIystLb9ZWAKbYrs/OtVmuln7RgiXWu7085E+s/sUBNKe8x6o/nEbHEElu7MYwEAAAAMAjFNgAAAGAQim0AAADAIBTbAAAAgEEC5gJJXFpFLjiwWCyVji0uKiqqRnIGAACobejZBgAAAAxCsQ0A1SR3UbzmfV1PkhR+YLlaPJ17yfUf2nK2Wh47/MBy3W5O9nhMm/L0yUNDXDkZ8bgAgLIxjASVlp+RpB4zD5Rr3bC8EVqcM15xmTOUdDBFLw88qx0PTtf3c9M0/NgMRWQMl3VKk6JlVxTbwImNSk5rq9Sp0WU+rutxfL1zgEs4v2W2Hl7XXtIfdfv0kveHnknQxAOD1EE22ZSnTx8arQV7f1Hq9vYPm6bDllGe2zj1ud4rnKJRbc57LL961By17LxSr934iG5vfNHXuwIAAhrFdhA6uNCkEUuerZaitPX0nUof2KjMdQq1X8sa7bbfiJmlmW+Z9MRXeeojKWLvfEX8c7jyp0SrUPt14MJADb7i0o/bf5VFc9qW8ThALXZ+y2zd9XhTtet1WHUfXKvH3Yphm7K1MeYp7X46QR1kkySZ1ESdXtio19zih00/pg4vL/eILe4/y6fJ9PBn+oX+qVdintLfwsOK7mwg7ek9WuscN5vNfkYvDAj39a4BgIBDsR1EinqEYxVWDdtzybT3TOdPib7kqgcXmnTHhlhpQx9tk6TPPlW0NipC65SfuEmrvtisVeZprvWjZ7yq+7fGa/I++0WWcWu7afDICL0906y3vWw/7MoRusHXOxpBo86pHXrK/JN6HPy9qzD2xtkzvf2hTUo5PE3RB0bp8JdRksYod1EHtXjrVR1+LEq5i+I1YflkTTywUkO9bC/8wHINSNqvZrOf0WuWcEnnPbY/xfa4NqTGqqkjt9UHn9OoNt/r04em6dDGTXqtzXmd3zJbN2+51bUeAMBYFNtBJCIxXZZE+5CMSdd/Vy3bS5eUn3FI0RuHy7yx9HX7f2jRGEmaaJNlor3ovmv1eI1//1nXkJFDC/6rlHcs9tuOAt5yWwvptqOyFBtGcsqtZ/vgQpNWJ9g0u61nz/bevXsVHh4um81etNhsNo+/3Ze5/5Okn3/+2RV7qTgn5+28vDw1btzY62N6u+2+3bNnz6pevXoe65pMplLzLCgocD3+uXPnFBZW8mNUQUGBCgsLvebv/PvcuXOqW7eu1/aU1VabzabTp0+rQYMGZbYzUF1sfIO6JYzWu18PVYcyephDT32uD7bdpZteuKB6babr8ADHflSe/ptzlWL3ztHt6yWpfakvyue3zNbt049Jko5NLzn0pMPLm7TDLQdnr3bzU1u1sf/LerzNedU5tUPPjW+rpw6a1VQ2nd8yWxM0iR5tADAQxTaq7FjWWrWefuqSw0kkyabj2p7cTg+YFmt87+e1qN8Hemv6TqV326bN34Tph+8kOYrvQa2bVyiPEMVqzE+xrttTpkzx9a5BgDOpibqPS9AdW47o8TalT3H584cfKucvk/RHndAnbmOvQy601Z0f/F2vuY2btg8juV/zHEM+9g+bpsOPRanegOl6bUDRNp293B1eXq4/NT+u3CaeQ1E+XNlan60bpR5xo7QhNVw2ZWuD+YCutYxXB9kfr+6Ah3Xv2DS9duNjjN0GAINQbKNKbDquI4eb6dqE8hfaqxOylTPwrHY8mKWUd9LUaaVJcVPH67GNCcp+I1tqG62Db83WtQmzPOLrbxiq1kee0usD6+jt+9yHkcRKG4puZw9Zp/wp0YqLi1PdunVlMplkMplcaztvuy8v/ndBQYFCQ0Mvub77bef/P//8sxo2bFjmY5Z234ULF1SvXr1St138n81mU2hoqEwmU6k925IUEhKikJAQV0958X/nzp1TeHi4131xqVxOnTqlJk2alLl/Z82apUD1c+tuWpiwT5899gd5K7dtytMXmxup9/wImRTuMfbafn+mXr3ma1377R/UQTaZFK2hmSs0tJRtOS+ULLog8rwu6HvtiknRoY32HmznNobnnVRuk8vUVFLuovu0oXF7yW2ctlPe45+oG8NKAMAQAVNsW63WGo3zp9ia+GEYz+K3JPuFlE3VN/Wo+jiK7l0PHdWcK+xDS/ZNtF/g+P3TOcrVGb3352eU6FiW1upurWgYruzhryh/SrQOLrxZ/VfZSgwjKX7B5IIFCwxvtzdWqzWofoynPO0N5GLbpGjFj79Pa76+Q/d4ub/+gdc02dRdGxw9x15nFvmFJPO7HnF5caM8xlU7L4q0ryzFrncOPXEID5PuHqWHHBc6Onu+nTq8/JleTflen41do2/nP6a7ctPUfMstOvxYlH04yZY2AT2cpCKvm/7y2k4sscEY64/vrwFTbFdm51elKPLHWCOYZC+gLWWsk5+RpDGFRT3b9osdo6R99gI99Gw3x9jtWN3c2qR1Ty/UzKmJypckxSo5K1PJJzYqOa1om5e987TM9zkrjaKe7TPmudq5LEHNHPf423MUbLGBouUt92vZliO6x1Tyvpy3Vuqmcclq6riY0dvMIsXHTduUrfUPer7ZFB9GIsd82Wv6f+aakcReyN+teS026Z63Vyov7nm3gv28/ZLLwqv0q8YFUq7ntl/w9U40WHmPUX88j4glltjaLWCKbdQs9x7nsrSevlMz/7VW+m2qTGqq3qlbNOqaVWr8+XP2CyFPbNSjkyLV2zFO+7qRr+j7uA+0bK/3mU1sOq5vDj6o39520TVcxD2n1Pu/9/WuQRA623qUDreWcheVvC8qZY8el/eLJ50XLN53sL7kNvtI6KnvdCSksdf1n+qcpWv3es6PHX5gueKfi9WG1Fh1emGjOum81GaPdjgK91dintKhjS9r2lWf692QlhpVbKaTOqd2aOqyVvrzxNLHnQMAKodfkESlhDh6nC0WS5n/nBdNXtvC/n/IP+qo/bcjdbJrjMxms+I75GrY8pvVzFFIvzftEe1o9JFGv5jt9XFNJ3Yro2CQurU45+tdAFRJ7qJ4De5s9TptYN3cHL346+YeY6jPb5mtP3T7V4lCW45if8/D+zXWnOz6ZUh7kT1Sd7bOUsvMlZp21VY91TlL0fPjSozNrpubo3STAAAGoGc7iHj88mJzabv55aIhHCZ7D/MUR+FbXQq1X++saCMlOBa0b6cumTM0rmG49t/5pN49fJ/uHd1K25c11RutkjTp3l2ypjbR9uR2ipi/q8Tc3QdXDNX/Ek+pie1jr9MNnjHP1WBf72gEBe+/6theWjdKtztuxWq/x7jqvLhRevORf+ieuz5Th5c/099Szrt6tHMXxTt+UdI+S8nTH1wjOWYNyV0Ur662V3X4yyjZlOn6gZrQM5M1MeWC5Ci4X7XYh5HMue5ptbrpa7X8dqX+JptyF3XR4OWTNfHAQ66ZSH5u3U0LBv9Jt6+3X1Q7+uVk17zdAIDqQ7EdRFzzbHs1RHMGJqlfy+wq/7Kk64drHM50f0Y72xaN2X744mrttMxyFPVHdeDERqW0naT6r2Qq33GRY9/Uo/rHQpOGv5nj+lGbX/95tt678xk9/FMjKVMMI4FPFR97XX6xes1yf4nCNiplj15LcV9y0eO+w67HLT5bSVGvuDOnTpL07a9c90Wl7NHfUoqvW3w7FNoAYASKbbhEJKbrHSWp2fzscv0aZGmuc/xwTUn2iykPFF98+RAt+nKI1+2sk+w/auNc+JPjCrGYWcqP8Vw/RLEat9LXexEAAKAIxTY8RCSmKz+xGjYEAAAALpAEAAAAjEKxHUR8NTl9bm5upWOr8rgAAAC+RrENAAAAGIRiGwAAADAIxTYAAABgEIptAAAAwCAU2wAAAIBBAmae7crOWuGrGTqIJZZYoOZU5Bj1x/OIWGKDJTYyMrLS2/WVgCm2K7PzrVZrpZ80YokltuqxQE0p7zHqj+cRscQSW7sxjAQAAAAwSMD0bAOovSIiInS7OdnXaSBIBVovGQD/QrENwHC7d+/2utwfv6bMzc1VVFSUX+VMewHAdxhGAgAAABiEYhsAAAAwCMU2AAAAYBCTzWaz+ToJAAAAIBDRsw0AAAAYhGIbAAAAMAjFNgAAAGAQim0AAADAIBTbAAAAgEEotgEAAACDUGwDAAAABqHYBgAAAAxCsQ0AAAAYhGIbAAAAMAjFNgAAAGAQim0AAADAIBTbAAAAgEEotgEAAACDUGwDAAAABqHYBgAAAAxCsQ0AAAAY5P8Bntd7NlvbdrIAAAAASUVORK5CYII=;" vertex="1" parent="1">
          <mxGeometry x="60" y="790" width="531" height="215.74" as="geometry" />
        </mxCell>
        <mxCell id="RB0Uhzs26PAhKy_j06YG-8" value="我们可以做这样的配置&lt;br&gt;&lt;pre style=&quot;margin-top: 20px ; margin-bottom: 20px ; padding: 15px ; max-width: 100% ; letter-spacing: 0.544px ; font-family: &amp;#34;monaco&amp;#34; ; font-size: 16px ; border-width: 0px ; background: rgb(250 , 250 , 250) ; word-break: break-all ; overflow-x: auto ; border-radius: 3px ; color: rgb(34 , 34 , 34) ; box-shadow: rgba(216 , 216 , 216 , 0.5) 0px 0px 0px 1px inset ; box-sizing: border-box ; overflow-wrap: break-word&quot;&gt;&lt;code style=&quot;margin: 0px ; padding: 0px ; max-width: 100% ; box-sizing: border-box ; overflow-wrap: normal ; font-family: inherit ; font-size: 14px ; border-width: 0px ; word-break: normal ; overflow-x: auto ; line-height: 24px&quot;&gt;&lt;span style=&quot;margin: 0px ; padding: 0px ; max-width: 100% ; box-sizing: border-box ; overflow-wrap: break-word ; border-width: 0px ; color: rgb(17 , 75 , 166)&quot;&gt;min&lt;/span&gt;-replicas-to-&lt;span style=&quot;margin: 0px ; padding: 0px ; max-width: 100% ; box-sizing: border-box ; overflow-wrap: break-word ; border-width: 0px ; color: rgb(17 , 75 , 166)&quot;&gt;write&lt;/span&gt; &lt;span style=&quot;margin: 0px ; padding: 0px ; max-width: 100% ; box-sizing: border-box ; overflow-wrap: break-word ; border-width: 0px ; color: rgb(168 , 46 , 46)&quot;&gt;1&lt;/span&gt;&lt;br style=&quot;margin: 0px ; padding: 0px ; max-width: 100% ; box-sizing: border-box ; overflow-wrap: break-word&quot;&gt;&lt;span style=&quot;margin: 0px ; padding: 0px ; max-width: 100% ; box-sizing: border-box ; overflow-wrap: break-word ; border-width: 0px ; color: rgb(17 , 75 , 166)&quot;&gt;min&lt;/span&gt;-replicas-&lt;span style=&quot;margin: 0px ; padding: 0px ; max-width: 100% ; box-sizing: border-box ; overflow-wrap: break-word ; border-width: 0px ; color: rgb(17 , 75 , 166)&quot;&gt;max&lt;/span&gt;-lag &lt;span style=&quot;margin: 0px ; padding: 0px ; max-width: 100% ; box-sizing: border-box ; overflow-wrap: break-word ; border-width: 0px ; color: rgb(168 , 46 , 46)&quot;&gt;10&lt;/span&gt;&lt;/code&gt;&lt;/pre&gt;" style="text;html=1;align=left;verticalAlign=middle;resizable=0;points=[];autosize=1;" vertex="1" parent="1">
          <mxGeometry x="60" y="1045" width="250" height="140" as="geometry" />
        </mxCell>
        <mxCell id="RB0Uhzs26PAhKy_j06YG-9" value="这个意思是至少有1个slave已经有10秒没有同步，则master暂停接收请求。&lt;br&gt;所以master不会一直写入数据，而slave没有同步。如果发生以上两个场景&lt;br&gt;最多丢失10秒的数据。虽然没有严格的做到数据安全性，&lt;br&gt;但是也保证了数据的不一致性不会超过10秒，超过10秒后，由于不能写数据，写性能下降为0。" style="text;html=1;align=left;verticalAlign=middle;resizable=0;points=[];autosize=1;" vertex="1" parent="1">
          <mxGeometry x="300" y="1100" width="520" height="60" as="geometry" />
        </mxCell>
        <mxCell id="RB0Uhzs26PAhKy_j06YG-10" value="二、Zookeeper" style="text;html=1;align=left;verticalAlign=middle;resizable=0;points=[];autosize=1;" vertex="1" parent="1">
          <mxGeometry x="40" y="1300" width="100" height="20" as="geometry" />
        </mxCell>
        <mxCell id="RB0Uhzs26PAhKy_j06YG-11" value="Zookeeper是CP模型的，那他的数据安全性是可以保证的，那他的性能呢？我们假设此时master节点挂了，&lt;br&gt;此时需要重新选主，这个时候Zookeeper集群是不可用状态的。那Zookeeper是如何保证数据的一致性呢？" style="text;html=1;align=left;verticalAlign=middle;resizable=0;points=[];autosize=1;" vertex="1" parent="1">
          <mxGeometry x="60" y="1340" width="580" height="30" as="geometry" />
        </mxCell>
        <mxCell id="RB0Uhzs26PAhKy_j06YG-12" value="&lt;div&gt;我们假设master同步给5个slave。&lt;/div&gt;&lt;div&gt;&lt;br&gt;&lt;/div&gt;&lt;div&gt;&lt;span style=&quot;background-color: rgb(230 , 255 , 204)&quot;&gt;性能最高安全性最低：&lt;/span&gt;当master不用确认是否已经同步给slave就直接返回，这个时候性能是最高的，&lt;/div&gt;&lt;div&gt;但是安全性是最低的，因为master数据没同步到slave的时候挂了，那这个数据是丢失的。&lt;/div&gt;&lt;div&gt;&lt;br&gt;&lt;/div&gt;&lt;div&gt;&lt;span style=&quot;background-color: rgb(230 , 255 , 204)&quot;&gt;性能最低安全性最高：&lt;/span&gt;当master确认已经同步给所有slave（这里是5个）才返回，&lt;/div&gt;&lt;div&gt;这个时候，性能是最低的，但是安全性是最高的，因为不管哪个slave，他的数据都是完整的。&lt;/div&gt;&lt;div&gt;&lt;br&gt;&lt;/div&gt;&lt;div&gt;不管是RocketMQ还是Zookeeper，都是折中选择超过一半的slave同步，才算成功。&lt;/div&gt;&lt;div&gt;当我们访问Zookeeper的时候，他会根据已经同步好的slave服务器让我们来读取对应的信息，这样我们读取的数据肯定都是最新的。&lt;/div&gt;" style="text;html=1;align=left;verticalAlign=middle;resizable=0;points=[];autosize=1;" vertex="1" parent="1">
          <mxGeometry x="60" y="1520" width="710" height="150" as="geometry" />
        </mxCell>
        <mxCell id="RB0Uhzs26PAhKy_j06YG-13" value="" style="shape=image;verticalLabelPosition=bottom;labelBackgroundColor=#ffffff;verticalAlign=top;aspect=fixed;imageAspect=0;image=data:image/webp,UklGRoQSAABXRUJQVlA4IHgSAAAwewCdASrSArAAPm00mEgkIyKjp3HJSIANiWduLZs57DGHrf1yIEF+Yr0M/jX/G8gHrGRcGod1vnyANVOSAqN4UmUar/yp+l6J/+luyedP3W71VP6R/t/YA/Zn1sPVO/x3/Z9KTVQvsX+P/rvrT+ifZ7lhfXT5RcPfDd5HvsH93+2f6i9sv9f4gX5D/J/9V3qveSgA+lP9m/p37q/4j1Rf5v0K+rv969Tv8l/y/ov5IHyr/k+wB/IP4z/uP8h+X3w5/1v+K/c3/jfBD6J/7vuF/zn+i/6v+3e0V67P3L9jb9jP/qTLpvubuYNMEJv55VCWhsv5KLY9T0tTiWQc11Nisid9/JTUgPJD0PwBneadJVbIXVoziVbtRRz4GE51EKDsud+ixFlPqIe/B2QQu4hw+dntRDwHzgWil6A4zmKtrhWzD7Jbo7eJPa6CHo/n9slxtXl/Gv4uGODJrvBqmnioDBYUh5wIVc8/0ktw4y/nQIL+yWkJLRx3VqBF3g1TTxUBgsKQ8/EbRxeli/kuNqyg5cMrEKr2HtvvuuqFFamfbyhfOSEvDYIMH/7Mv7DDMnSErzlyF/CfTfIkFH74neNuNDebcKx7xtXGiH778RJtUdGuNx15RxF2fpD3nfgBGUzh63gu4U52vSZDnh8C01eZ+BThFqOeo1vKS4KJv+E5xYRS2bCSf9wg0Yu1yxwoeT0dm0cLmgNg79Orvf0x7SHoqO4DK+wDthPqdeXleOElvf0rjb+bIHe1ebV4vymdQInbG469XuFY/4Tir06jlOXhbL95ZOI4W01JrxwtEw8d9gUsfGXxO1p04Y0DgQeIX41JNUxB+GHuEQ1xzom/oxGNKl9p4AjKVzorB7c+Y6AhCcyyM4DnyCK17qO+go2I6NmoUEKkBge4nYOEELhY0Dfki8qzg8/7xFDhyfd+OXloZflJdlBd3GEMwAi5nUEHOjtyO/QiOZXcunIIs5kZUszJZdbF7/1rX4tpRMELJ657Slu/MgaVCQ77cg5GRDBXQ52DP3av9Zoc1p+SxT5qsrFi6p0jPBNmASJ/ICU1eYaiczEDMh1mQu/xxh7NQEAcsb+8cNpIvYjL/TzHJr45H5DmdA6/umqVhpem1Hf8u+SoOKZZfpnUOnDuju4i9y3246EFYzH7B6qt5xH1C7/r7hs+fNbhMl0pS0DfyUBHsQI0H7jtES8dRdPem0oNXPsUPtyrhOdRCg8Zmesg075Y14kBhOcvb0rKHif8lD+YZuAYTnUAQm+xsVhUyAsoEmSh3AuPM9LN4y+oq5LjavNq80DfyXG1ebV5oG/kuNq82rzQN+QAAP779gQVBXwqe5AR4aLTlTG0ZQS6YR7U+ik/7TUuJQUiStw/+tJladD61EpcpSGkLlWqY+xER5WmxQh69CZWAbJPDC5WxT0cRCARdCqcIwv5LZLIY2wD0QQRqmmxcVouQUIEHM0Lt7+Uquo4zT6d5IbYGvJuyaV/69FbH//OdDx/rvkVcwUJGnZoA+PMwTqEj/7lR1bjfaljfdKNerK6KNltMTrTpCXSprVuh6tqBWigy9fr3/7PxnIKUYbgGlHYLohvIpSDsfpml43Qa9CXq43NLQb7xYQB9Xy+XOnsvgm3qaUKNRZs7RlrmJ2kEpulHm7DPOV/cxhVOkT2syFL0IcootdR+64Dykz8v233R3WRUztFTO0UkEACuNuV+iMlsXYRrY5lcAAWB1n4rEjVl3939LAPxy72GOtb15Zo99H/kyvLMCwBJENjtJi16rMaMKO5l6tlHkWvV8l50hXdNjn/zPht/0ufq/4aHtfPzP8tSJf37TOZu2vSeVrwRxRWsj5afrkNLuQTfK4LA8lhiz9mPHnvkDvTAY+dsMOxZAcefyXJxXMY2AQxfR2JS3cdyufHWV9BTJZsDUiKDRiIuQQ22cn7WDDhPowYFiUJjUfUou/AerYf+b+P03/OV4vbq7b5YVgNqM/bBbgTWWwpGo7YoHx+7rdv+hRXxLKSx2dC98fFQsE07EvuLfdjrWUFnXClfMa+BLMp279y3NXeeCP2gbzuaCmG/BHzJdw8dowA+g6xg6cUKChW+w2JPwJrNGg4MB6rG2GVmMyE58IAPNSHG3Jm3PN8BVa7gCWMADpSghq0rChIfvJP4HMoe0VvkLWP9fyjv4wf73hcBmj+ipVFjKxyxdmw/tmMD3NplDciEtYNYKeWVkOL9uj1oHhQ9OJE1khdZ9GJ6zSfDp7q7eS+5B8D4Y5i0pkvFUVR//rUZ/72azuJUkJLp4ZrfSVHqblxSsZz4sLAD/uyiT+ewBTGgQdmB0gG63snQyOyO+5HB4mLd2Q/uI12jprAC1+kLNBFxc3jDs51XHolZZ1NB79NhVJsnBs3jIVMgYVHF1f0Gsxd2YGZodKfH2pUtoFONP7C8LEKKE4/D4K9ndcVE8sH/+iD8OPLxpzVbhEcJiw0VdQrFor4fO5ows3cBzR+GZUC56AReQ1wtGvtvC8Gh8iH/SJf9kqoNmVT/meeqWFlu+PZ+LwzeFlev+CWQaTChJjmk2kARrF8FERz6FdbGpcXjjPxMY4VaEimaMnCIoPJ701r1snWaBrhM0wqMttTVncaFXNg2v+Pt2hfpXdSQD5of9vr2xJYI0z8T5f31I/xjNPVHiBAnAGI7IV3MIJqJONW2ur4Xfk7a75/oLZEsrO/iJLz207YrVlAR830yuSHN35VJaQCxSD5NyTuP0IXDO/iIrz2HDu3A82mBtR5DA1VA5tQi5IInStl4kjKpQARGAMNGaxiVC1E6qxcZarJLxRl9lC+W9bKD2F88pDyeirn24bK4vGE8y/Btb05YpxNN6es3R/FsB3SgA8tIuW+mE9T3akFUIybVAMqrFhbRzQPqroaGBb+OdX8fFRpeRvTZv3TtgR7eouUXLDwPwz4gi683X5i41TWYtot0wecR9d4T0YNP0bNCtuBRUpWS25tpnqhoalfATMWLIh99mO8cS10TBv/X/fm5sG+f6kzUPKFFWqse3pwEbxQAFokhfr11fiItaxCH1j6BDMSsNHT2nWqng6i2KfawdLF5mByS1A9Tjt69mVGp/SbH76AQQIKP6Ay0gwlHF3BDFhbAvIQ12G1rjhtxsOTbp3amBDJXH3ETaX+gNanPphnwid+Zs5amlkRP3jqfsq4ABjH9jisNNQeheipSYoJ1w5lbbry5jCDuQX5957S9UaaUOXbLyTr77iZ7ai82GFmrimwKk13qWicAL9ZNRw8GJDG+Ve4WJFNLji3Q4K0qs3N2qPFWl7/6aCrbX1nshEuASP7gOeQCSoCSoAqZl3ZWsC6A/6fPobs3UVsxaluK93pQGCpj7dInFZ821heQIvyScCXYfKT5OWv4Y+soAxTbG2C4HMg5JPIwGcJNKKGQ53sY5fnOS+HEUohJbdFldlgaeSRJqN8OZW7bObZaJN/SU/yMaNukGjBU/4Qt2E3xt2jV8YRk8W5nGp/qdKDzCKzZ5hfHwDh3dSY/GGHfyiYw8+9/Olu7OZMs1xejLcwax311A186W/GfWHbQr/wxsSnt3b9i4DGDSAi5/XyiBjOvOAPLzB0daVTvqFn6G4ttQoPsKR4O7Ug24dq8d3vG7MI0U08/TbkMJ4edLK0hg3/m9ZT9H4xpdFQ1QIvj3CEFV2OSEDMrf21A44J70fOXG1kOs3cLybC+3GaddEPLv0gt56cbqMpUDs6UvQF+tgK2H3NvcVSdHQm6K5mIpFwMpnSbQaZfkPRQOMDEDjOoA597XT//BkkltKAgCJUivI5CKdXbAgMqOxEINLlEUC5UECr8qNoFK1YsjAS42/JE31K0hAkcKFUJbFxEpmKQnm9Dq4xzZIciNyxyvvk6ysyj/GqhLbogXZgLtimLwJ6AFurA7PR3qN8JUITvpn6WfP9j0SGG8Qyyi4P2aoS78NUyV+TT2ToW9IVSAqrcyF27C+p8zlKaLKz8EQF5Cw9/OgBT9NpLASJ5f+X75Wy2Iyew0b/x70qHlJI+qrofTFlT8CRpi/w49C5lqqEy8J0BjV74V0lQneR39dP4mILV+hKWOEjsAwcB+LzpcYDKCM4GF8ZR9ObSvlsrkMH6CGkeyB4GTZDJ1N62XZzXRpi+BgOXAZyz1WKlriVXQt+mITaFq91h6tnaYYf0RxxaZaxm/lI/N1Qv1n41iAHGjYSGMSIKM+9/ADOe/Xh+QZTrX3GNmrpVkn2TrTrf3P1MHOUS//gySS2lAQBEqQhMg+r59n4J4y83ytDj7/oi1x+H4wkGWrLtvmEtjFTCjGtkEg1846vGZM4reEoOTEKRPvj8PpNKOwAx1iskwhiR2suGGNwkZxwbhiMzYEZa2wp9po6JVAK0hlSAfgKQiKm9p+FRdilmEJkwc1+7KX4Il4iTdssZH3XqX3364VyNb/nygNgy5Ok/3F8Tk/gM5bCxh7G9GgcE4dSMDksgIzKT7ZaxdT/z7KY4bGLd8Ro5iP8CFjFp+h3QXM88UzG0r+9dR3Ubga4lzn1VO6vvmgmWztOBq49Ol2rI2VV+/434gBf+KAO56vbeMeSL6gxOVzXpCjSRNYzcTFTFBYFAVXJvCxAvFXK52DLxUOVcLaPuS3q8X1aZZO1Ygtq2tJZhj2LyYFutJzrtnQr6W6LgCDm6N5wh1YSeztPxbntTng1lFNBV8gb8NDeisnN+GRWXTcZj36Q6xi3MYhga5lo/nU+1ja6bTsRWiZzH6WiGGyfG6UBb8GYKi16SLl55VKZMq8thIU0t+0YcOUDGF3uFIB5ptRw7uPmq2UH359j7PL8FLm3p/POA+NUmh/pV/dC0O4+bpBRrrUf7P0cvujjFm/6ZV784TZ20vug67K8GF1cCX7W+8V9d5QqyNlqDa8Xl7H1Iq7SqVqqUW7OPlYX9DQuB9I4EOo47FWdtatdgxo5kTIW+UraNiOY0d8H8tN16nlvjHFVHNu2p7gD56SOQwKGoHhXdv+MScxgEYgIl/F2OTrhf3bay3PQj7T1AC5/PULN4Nf87qfLk/R6i9z5ohlJBgkPkhtM4dO+Nb8NWNfTfSmnWgzG6RKnujJwVOgNEo6sr5RgJjf6U6PCEC96I26MENltBROUPI/YcDHoiqJXE8eDJ4e2p15Lb4VxgyFYOsZSXxo8cDB2n3gtP4jCaekvUnTPwSKjZYBjR50UNNZJWN9uI8pIowg/+QNGUB4eDHMND74Vncyz6vdpPtyhb20rO3B3M+5LAMxzhZt2qqr+HmjSG9F3i96dFhdV0pc41xj0lJWAcEFR67Rpnd18j31QIzBPb7rc9jadiI3E6ebWIk7pCLsBhqw8onLGr6w6DMqFUV8N1YYWQebcPKn/RcX6e04At0eJHkklyat6oCYVWc0avxUNdIA+ycuPYIQQAGJ00AEc8Nvmh9s6rgT+jUyqrR8T1vNBHxXj0HGjXk8Z/3+suiXd1sKHf9Rbwj3FCz51GP+0O/BgTZZOjxB0uzOX/MgtL0pBWCjiBf4JsLDGBDk2hjETtZNPewuWrGVx9EFkzteKXDdwEZBVmriaZzefDYmIkrmS+5Q1yN7sl0vV8c2K+SSj9mUcNN+Xky7RBTA7ije/L1QyO7Fl5tN3IcX47JUY3lQXatBxL9XVoVYWgyjMlytFczB6XfFfB/J7ThJJthPL7t6BNyUCcEZZouaE3T05DKmxUbVXg1l9W1t2nCbRmtYfiKW9IIv+BBfSuxESHEDJbcaJ23uQbOW2S8soISO82hAgyFUXJXDRW6IuVOrPt6FeSH5kb7XT06N+lMvsa6vM71qp29wssUYTu4hdOGvuWGXqknIAjAVikT3g2P4WysTC1d8q0Pbz9qckAi7Wl56p2xAHx8ucfWdVOMBZBom3GxhSdoDB35tZXRdXSXum9X+94pp+Z6ZAH9sntOKZf+sWMXGO1ArhUdJM3P63SKqQmAj/ulc/8bckmIsea1fAKIoqf4NSbZb3v4jzlVIJFTOCIZeCD/ySYRvhjHO71WAzwrm6O7sEibkiU53Rr99Zs606tdB8hmTeLkmhtyZeCmNyJ5GtpmzQb6NeuK6Lq3zr1hA2i9zsUbiMrgu5qnbZrU/nMPBnPJA/r2UHsqZGLMP1ww+fm2o2BejkmEPcgicenjy04OWkL0rrP9zKiEepeHmkE4yXLKo4Ufk1gSYxwkQAVfTvwBbuiOsx9SvOptv6yxOKSNy99amLri3fwTQ/+WprZmBwqIaLAdzWEA9l5y0henMZd2mn+6Y1n2Iz9pkfKZwQkQJ70aEZQPhdE1VFCwsAFyCiA8mL8ZQAwKdQAAAAAAA=;" vertex="1" parent="1">
          <mxGeometry x="62" y="1390" width="456" height="111.16" as="geometry" />
        </mxCell>
      </root>
    </mxGraphModel>
  </diagram>
</mxfile>
